<?xml version="1.0" encoding="UTF-8"?> <svg xmlns="http://www.w3.org/2000/svg" width="348" height="322" viewBox="0 0 348 322" fill="none"><g clip-path="url(#clip0_748_1724)"><path d="M280.357 229.219C279.645 230.766 279.656 231.433 279.262 231.973C245.404 261.776 206.033 276.762 160.686 272.798C149.232 271.826 138.268 267.907 128.272 261.638C106.73 248.385 96.7857 223.747 102.967 199.348C106.116 186.613 111.355 174.984 121.657 166.288C127.761 167.337 133.8 168.587 139.628 169.105C149.139 169.905 157.866 167.576 164.919 160.73C170.261 155.779 172.175 149.74 169.969 145.497C167.074 139.928 161.428 138.138 155.96 139.284C148.359 140.862 140.905 143.372 133.791 146.212C129.204 148.08 124.903 151.147 120.73 153.811C99.0269 143.166 96.174 118.561 113.819 95.8017C117.301 96.0193 120.984 96.3009 124.53 96.3172C137.704 96.0632 149.139 91.4924 157.202 80.7581C160.283 76.6401 162.483 71.7998 159.524 66.4319C157.255 62.3899 151.608 60.6 144.941 62.0306C134.409 64.4513 125.669 70.3195 117.544 77.0473C114.772 79.4912 112 81.9351 109.43 84.4428C75.4156 69.2306 60.4267 29.7033 84.3686 3.18098C81.6832 2.55125 79.5287 1.6468 78.0635 2.06837C76.3329 2.6273 74.8244 4.58568 73.8469 6.26934C65.1971 22.3553 62.1733 38.8955 70.5291 55.9419C76.6791 68.7451 85.8666 78.9671 97.3692 87.4863C98.9928 88.6655 100.616 89.8446 102.176 91.2251C102.378 91.289 102.452 91.7554 102.802 92.7523C102.026 94.4999 101.324 96.714 100.219 98.8002C87.4343 124.429 90.2279 140.82 111.48 161.29C109.907 163.449 108.208 166.012 106.37 168.309C96.2138 182.145 90.8977 197.516 91.1642 214.877C91.531 243.125 108.28 266.597 135.535 277.23C150.341 283.031 165.69 285.017 181.529 284.057C219.82 281.576 253.532 268.339 281.412 241.293C282.931 240.003 284.312 238.447 285.831 237.156C286.096 237.019 286.563 236.946 287.965 236.725C287.409 244.08 284.762 250.329 282.317 256.642C280.137 262.818 277.491 269.067 274.918 275.783C280.353 276.841 283.263 274.662 285.557 271.624C288.043 267.982 290.932 264.468 292.41 260.506C296.259 249.765 299.97 238.759 302.874 227.497C305.012 218.65 301.14 214.764 292.869 216.351C275.331 219.873 257.728 223.597 240.125 227.32C237.259 227.962 234.668 229.134 231.143 230.453C234.367 235.684 238.104 235.097 241.576 234.646C254.252 232.462 266.737 230.882 280.357 229.219ZM151.56 70.5525C145.343 83.8655 133.726 89.7078 121.032 86.3484C130.017 79.0073 138.269 71.8769 151.56 70.5525ZM161.252 148.493C154.665 159.474 144.812 162.552 132.893 157.445C141.771 151.842 149.926 147.118 161.252 148.493Z" fill="#0ABAB5"></path></g><defs><clipPath id="clip0_748_1724"><rect width="246" height="287" fill="white" transform="matrix(-0.302169 0.953255 0.953255 0.302169 74.3335 0)"></rect></clipPath></defs></svg> 