<?xml version="1.0" encoding="UTF-8"?> <svg xmlns="http://www.w3.org/2000/svg" width="501" height="501" viewBox="0 0 501 501" fill="none"><g clip-path="url(#clip0_711_2842)"><path d="M61.2601 238.12L61.1801 238.27C57.8701 244.81 52.5601 250.13 46.0201 253.43L45.8701 253.51L46.0201 253.59C52.5601 256.9 57.8801 262.21 61.1801 268.76L61.2601 268.91L61.3401 268.76C64.6501 262.22 69.9601 256.9 76.5001 253.59L76.6501 253.51L76.5001 253.43C69.9601 250.12 64.6401 244.81 61.3401 238.27L61.2601 238.12Z" fill="#333333"></path><path d="M76.5099 253.59L76.6599 253.51L76.5099 253.43C69.9699 250.12 64.6499 244.81 61.3499 238.27L61.2699 238.12L61.1899 238.27" stroke="#121212" stroke-linecap="round" stroke-linejoin="round"></path><path d="M391.75 428.51L391.68 428.66C388.52 434.92 383.43 440.01 377.17 443.17L377.02 443.24L377.17 443.31C383.43 446.47 388.52 451.56 391.68 457.82L391.75 457.97L391.82 457.82C394.98 451.56 400.07 446.47 406.33 443.31L406.48 443.24L406.33 443.17C400.07 440.01 394.98 434.92 391.82 428.66L391.75 428.51Z" fill="#333333"></path><path d="M406.34 443.31L406.49 443.24L406.34 443.17C400.08 440.01 394.99 434.92 391.83 428.66L391.76 428.51L391.69 428.66" stroke="#121212" stroke-linecap="round" stroke-linejoin="round"></path><path d="M406.33 69.5601L406.27 69.6801C403.6 74.9501 399.32 79.2401 394.05 81.9001L393.93 81.9601L394.05 82.0201C399.32 84.6901 403.61 88.9701 406.27 94.2401L406.33 94.3601L406.39 94.2401C409.06 88.9701 413.34 84.6801 418.61 82.0201L418.73 81.9601L418.61 81.9001C413.34 79.2301 409.05 74.9501 406.39 69.6801L406.33 69.5601Z" fill="#333333"></path><path d="M418.62 82.0301L418.74 81.9701L418.62 81.9101C413.35 79.2401 409.06 74.9601 406.4 69.6901L406.34 69.5701L406.28 69.6901" stroke="#121212" stroke-linecap="round" stroke-linejoin="round"></path><path d="M70.9502 180.45L76.0002 185.49" stroke="#121212" stroke-linecap="round" stroke-linejoin="round"></path><path d="M83.04 192.53L88.08 197.57" stroke="#121212" stroke-linecap="round" stroke-linejoin="round"></path><path d="M70.9502 197.57L76.0002 192.53" stroke="#121212" stroke-linecap="round" stroke-linejoin="round"></path><path d="M83.04 185.49L88.08 180.45" stroke="#121212" stroke-linecap="round" stroke-linejoin="round"></path><path d="M260.87 53.24L265.92 58.28" stroke="#121212" stroke-linecap="round" stroke-linejoin="round"></path><path d="M272.96 65.3199L278 70.3699" stroke="#121212" stroke-linecap="round" stroke-linejoin="round"></path><path d="M260.87 70.3699L265.92 65.3199" stroke="#121212" stroke-linecap="round" stroke-linejoin="round"></path><path d="M272.96 58.28L278 53.24" stroke="#121212" stroke-linecap="round" stroke-linejoin="round"></path><path d="M447.34 458.36L452.39 463.41" stroke="#121212" stroke-linecap="round" stroke-linejoin="round"></path><path d="M459.43 470.45L464.47 475.49" stroke="#121212" stroke-linecap="round" stroke-linejoin="round"></path><path d="M447.34 475.49L452.39 470.45" stroke="#121212" stroke-linecap="round" stroke-linejoin="round"></path><path d="M459.43 463.41L464.47 458.36" stroke="#121212" stroke-linecap="round" stroke-linejoin="round"></path><path d="M92.6499 447.41L97.6999 452.46" stroke="#121212" stroke-linecap="round" stroke-linejoin="round"></path><path d="M104.73 459.5L109.78 464.54" stroke="#121212" stroke-linecap="round" stroke-linejoin="round"></path><path d="M92.6499 464.54L97.6999 459.5" stroke="#121212" stroke-linecap="round" stroke-linejoin="round"></path><path d="M104.73 452.46L109.78 447.41" stroke="#121212" stroke-linecap="round" stroke-linejoin="round"></path><path d="M436.3 181.17L445.22 193.77L459.25 187.32L460.68 202.7L476.05 204.12L469.6 218.16L482.2 227.08L469.6 236L476.05 250.03L460.68 251.46L459.25 266.84L445.22 260.38L436.3 272.99L427.37 260.38L413.34 266.84L411.92 251.46L396.54 250.03L402.99 236L390.39 227.08L402.99 218.16L396.54 204.12L411.92 202.7L413.34 187.32L427.37 193.77L436.3 181.17Z" fill="#0ABAB5"></path><path d="M476.05 250.03L460.68 251.46L459.25 266.84L445.22 260.38L436.3 272.99L427.37 260.38L413.34 266.84" stroke="#121212" stroke-linecap="round" stroke-linejoin="round"></path><path d="M433.82 244.42C433.82 246.87 432.13 248.67 429.8 248.67C427.47 248.67 425.84 246.86 425.84 244.42C425.84 241.98 427.53 240.28 429.8 240.28C432.07 240.28 433.82 241.97 433.82 244.42ZM433.47 207.78V217.92L432.19 234.87H427.47L426.19 217.92V207.78H433.47Z" fill="#F7EEDF"></path><path d="M446.751 244.42C446.751 246.87 445.061 248.67 442.731 248.67C440.401 248.67 438.771 246.86 438.771 244.42C438.771 241.98 440.461 240.28 442.731 240.28C445.001 240.28 446.751 241.97 446.751 244.42ZM446.401 207.78V217.92L445.121 234.87H440.401L439.121 217.92V207.78H446.401Z" fill="#F7EEDF"></path><path d="M226.35 307.5L164.67 310.29C159.15 310.54 153.68 311.44 148.37 312.97L94.73 328.43L102.03 399.79L156.69 394.07V500.32H349.27V394.07L403.93 399.79L411.23 328.43L357.59 312.97C352.28 311.44 346.81 310.54 341.29 310.29L279.61 307.5H226.34H226.35Z" fill="#0ABAB5"></path><path d="M349.27 413.97H156.69V452.02H349.27V413.97Z" fill="#189895"></path><path d="M279.5 284.79V307.71C273.61 349.16 230.48 347.61 226.45 307.71V284.79C232.59 290.52 241.12 294.54 252.97 294.44C264.82 294.53 273.35 290.51 279.49 284.79H279.5Z" fill="#F2D1BE"></path><path d="M279.36 182.39C262.39 188.73 227.51 183.34 227.51 183.34C222.59 198.88 210.7 205.91 210.7 205.91L210.74 247.51C210.74 247.51 212.69 294.77 252.99 294.44C293.29 294.77 295.24 247.51 295.24 247.51L295.28 205.91L279.37 182.39H279.36Z" fill="#F2D1BE"></path><path d="M226.33 284.69C232.48 290.47 241.05 294.54 252.98 294.45C264.7 294.54 273.17 290.62 279.3 284.99" stroke="#121212" stroke-linecap="round" stroke-linejoin="round"></path><path d="M272.43 326.57V326.58L272.41 326.61L272.39 326.58L272.4 326.55L272.41 326.54L272.43 326.57Z" fill="#E8E8E8"></path><path d="M272.43 326.57V326.58L272.41 326.61L272.39 326.58L272.4 326.55L272.41 326.54L272.43 326.57Z" fill="#E8E8E8"></path><path d="M238.69 268.02H267.64" stroke="#121212" stroke-linecap="round" stroke-linejoin="round"></path><path d="M258.08 273.15H248.09C247.03 273.15 246.16 274.02 246.16 275.08C246.16 276.14 247.03 277.01 248.09 277.01H258.08C259.14 277.01 260.01 276.14 260.01 275.08C260.01 274.02 259.14 273.15 258.08 273.15Z" fill="#D89E82"></path><path d="M138.37 99.87H370.05C376.3 99.87 381.38 104.95 381.38 111.2V238.16C381.38 244.41 376.3 249.49 370.05 249.49H138.37C132.12 249.49 127.04 244.41 127.04 238.16V111.2C127.04 104.95 132.12 99.87 138.37 99.87Z" fill="#121212"></path><path d="M371.29 238.17V111.21C371.29 110.52 370.73 109.96 370.04 109.96L138.36 109.96C137.67 109.96 137.11 110.52 137.11 111.21V238.17C137.11 238.86 137.67 239.42 138.36 239.42L370.04 239.42C370.73 239.42 371.29 238.86 371.29 238.17Z" fill="#212121"></path><path d="M156.69 500.33V376.16" stroke="#121212" stroke-linecap="round" stroke-linejoin="round"></path><path d="M348.69 500.33V376.16" stroke="#121212" stroke-linecap="round" stroke-linejoin="round"></path><path d="M100.07 380.51C57.7699 386.99 41.1299 379.7 41.1299 379.7L96.0699 341.44L100.07 380.51Z" fill="#F2D1BE"></path><path d="M137.34 284.88C137.34 284.88 153.88 274.41 158.8 246.19L130.26 242.97L137.34 284.89V284.88Z" fill="#D89E82"></path><path d="M125.62 233.14L128.17 219.92C128.68 217.25 130.87 215.23 133.57 214.92L136.89 214.54C140.78 214.1 144.71 214.88 148.13 216.8C152.32 219.15 157.66 222.13 158.72 222.66C160.5 223.55 154.66 227.75 149.72 226.32C146.39 225.35 139.23 223.75 139.23 223.75L136.76 231.76C136.76 231.76 125.93 233.03 125.63 233.13L125.62 233.14Z" fill="#F2D1BE"></path><path d="M118.59 239.44L118.91 243.89L144.62 238.76C144.62 238.76 154.73 247.35 158.72 250.12C159.31 250.53 159.78 250.82 160.04 250.93C164.6 252.72 169.34 249.95 167.96 248.75C166.9 247.86 155.35 236.62 149.82 231.24C147.92 229.4 145.42 228.31 142.79 228.16L138.01 227.84L122.42 233.25C121.51 233.57 120.74 234.11 120.13 234.81C119.09 235.94 118.56 237.48 118.72 239.07L118.59 239.45V239.44Z" fill="#F2D1BE"></path><path d="M138.01 227.83L125.84 232.06" stroke="#121212" stroke-linecap="round" stroke-linejoin="round"></path><path d="M118.59 239.44L118.91 243.89L119.7 255.03L146.32 248.66C146.32 248.66 157.8 261.95 159.7 263.04C163.92 265.51 169.04 263.51 167.86 262.11C167.27 261.41 162.94 255.71 158.72 250.11C156.47 247.12 154.23 244.17 152.62 242.02C151.03 239.91 148.74 238.44 146.16 237.89L141.24 236.87L120.13 234.79C119.09 235.92 118.59 239.42 118.59 239.42V239.44Z" fill="#F2D1BE"></path><path d="M119.69 254.42C119.4 251.19 120.89 248.01 123.54 246.14C125.19 244.98 127.01 244.09 128.54 244.32C131.06 244.71 137.82 245.94 142.19 246.75C144.71 247.22 146.93 248.71 148.32 250.86L151.91 256.44C152.92 258.02 153.44 259.86 153.39 261.74L153.22 267.81C153.2 268.68 152.38 269.33 151.53 269.13C150.3 268.84 148.74 268.35 148.23 267.67C147.34 266.48 146.05 260.25 146.05 260.25L141.6 257.38C141.6 257.38 144.07 279.74 134.77 287.85C134.77 287.85 112.26 310.7 103.36 329.99C94.8 348.54 77.59 380.13 43.82 380.41C41.34 380.43 39.2 378.66 38.68 376.24C36.97 368.16 34.72 349.76 45.78 337.11C45.78 337.11 61.89 320.62 79.66 304.96C96.16 290.42 114.33 276.79 116.11 272.86C119.73 264.89 120.02 258.36 119.68 254.42H119.69Z" fill="#F2D1BE"></path><path d="M128.54 244.32C131.06 244.71 137.82 245.94 142.19 246.75C144.71 247.22 146.93 248.71 148.32 250.86L151.91 256.44C152.92 258.02 153.44 259.86 153.39 261.74L153.22 267.81" stroke="#121212" stroke-linecap="round" stroke-linejoin="round"></path><path d="M96.9501 342.64C87.0601 360.16 70.6801 380.2 43.8101 380.42" stroke="#121212" stroke-linecap="round" stroke-linejoin="round"></path><path d="M158.72 250.12C156.47 247.13 154.23 244.18 152.62 242.03C151.03 239.92 148.74 238.45 146.16 237.9L141.24 236.88L131.05 235.88" stroke="#121212" stroke-linecap="round" stroke-linejoin="round"></path><path d="M464.84 379.7C464.84 379.7 448.2 386.99 405.9 380.51L409.91 341.44L464.84 379.7Z" fill="#F2D1BE"></path><path d="M368.63 284.88C368.63 284.88 352.09 274.41 347.17 246.19L375.71 242.97L368.63 284.89V284.88Z" fill="#D89E82"></path><path d="M380.35 233.14L377.8 219.92C377.29 217.25 375.1 215.23 372.4 214.92L369.08 214.54C365.19 214.1 361.26 214.88 357.84 216.8C353.65 219.15 348.31 222.13 347.25 222.66C345.47 223.55 351.31 227.75 356.25 226.32C359.58 225.35 366.74 223.75 366.74 223.75L369.21 231.76C369.21 231.76 380.04 233.03 380.34 233.13L380.35 233.14Z" fill="#F2D1BE"></path><path d="M387.38 239.44L387.06 243.89L361.35 238.76C361.35 238.76 351.24 247.35 347.25 250.12C346.66 250.53 346.19 250.82 345.93 250.93C341.37 252.72 336.63 249.95 338.01 248.75C339.07 247.86 350.62 236.62 356.15 231.24C358.05 229.4 360.55 228.31 363.18 228.16L367.96 227.84L383.55 233.25C384.46 233.57 385.23 234.11 385.84 234.81C386.88 235.94 387.41 237.48 387.25 239.07L387.38 239.45V239.44Z" fill="#F2D1BE"></path><path d="M367.96 227.83L380.14 232.06" stroke="#121212" stroke-linecap="round" stroke-linejoin="round"></path><path d="M387.38 239.44L387.06 243.89L386.27 255.03L359.65 248.66C359.65 248.66 348.17 261.95 346.27 263.04C342.05 265.51 336.93 263.51 338.11 262.11C338.7 261.41 343.03 255.71 347.25 250.11C349.5 247.12 351.74 244.17 353.35 242.02C354.94 239.91 357.23 238.44 359.81 237.89L364.73 236.87L385.84 234.79C386.88 235.92 387.38 239.42 387.38 239.42V239.44Z" fill="#F2D1BE"></path><path d="M386.41 254.34C386.7 251.11 385.21 247.93 382.56 246.06C380.91 244.9 379.09 244.01 377.56 244.24C375.04 244.63 368.28 245.86 363.91 246.67C361.39 247.14 359.17 248.63 357.78 250.78L354.19 256.36C353.18 257.94 352.66 259.78 352.71 261.66L352.88 267.73C352.9 268.6 353.72 269.25 354.57 269.05C355.8 268.76 357.36 268.27 357.87 267.59C358.76 266.4 360.05 260.17 360.05 260.17L364.5 257.3C364.5 257.3 362.03 279.66 371.33 287.77C371.33 287.77 393.84 310.62 402.74 329.91C411.3 348.46 428.51 380.05 462.28 380.33C464.76 380.35 466.9 378.58 467.42 376.16C469.13 368.08 471.38 349.68 460.32 337.03C460.32 337.03 444.21 320.54 426.44 304.88C409.94 290.34 391.77 276.71 389.99 272.78C386.37 264.81 386.08 258.28 386.42 254.34H386.41Z" fill="#F2D1BE"></path><path d="M377.44 244.32C374.92 244.71 368.16 245.94 363.79 246.75C361.27 247.22 359.05 248.71 357.66 250.86L354.07 256.44C353.06 258.02 352.54 259.86 352.59 261.74L352.76 267.81" stroke="#121212" stroke-linecap="round" stroke-linejoin="round"></path><path d="M409.02 342.64C418.91 360.16 435.29 380.2 462.16 380.42" stroke="#121212" stroke-linecap="round" stroke-linejoin="round"></path><path d="M347.25 250.12C349.5 247.13 351.74 244.18 353.35 242.03C354.94 239.92 357.23 238.45 359.81 237.9L364.73 236.88L374.92 235.88" stroke="#121212" stroke-linecap="round" stroke-linejoin="round"></path><path d="M364.38 257.38C364.38 257.38 362 276.9 368.63 284.88" stroke="#121212" stroke-linecap="round" stroke-linejoin="round"></path><path d="M100.19 41.25L110.57 55.92L126.9 48.41L128.56 66.31L146.46 67.97L138.95 84.29L153.62 94.68L138.95 105.07L146.46 121.39L128.56 123.05L126.9 140.95L110.57 133.44L100.19 148.11L89.8003 133.44L73.4703 140.95L71.8103 123.05L53.9203 121.39L61.4303 105.07L46.7603 94.68L61.4303 84.29L53.9203 67.97L71.8103 66.31L73.4703 48.41L89.8003 55.92L100.19 41.25Z" fill="#0ABAB5"></path><path d="M119.32 91.25C117.89 90.43 116.06 90.91 115.24 92.34L112.29 97.04C111.92 97.63 111.13 97.78 110.57 97.37C109.81 96.82 109.36 95.93 109.36 94.99V80.29C109.36 78.99 108.35 77.88 107.05 77.83C105.68 77.78 104.56 78.87 104.56 80.23V96.02C104.56 96.35 104.29 96.62 103.95 96.62C103.62 96.62 103.35 96.35 103.35 96.02V74.61C103.35 73.28 102.27 72.21 100.95 72.21C99.6203 72.21 98.5503 73.29 98.5503 74.61V95.99C98.5503 96.32 98.2803 96.59 97.9403 96.59C97.6103 96.59 97.3403 96.32 97.3403 95.99V80.23C97.3403 78.9 96.2603 77.83 94.9403 77.83C93.6103 77.83 92.5403 78.91 92.5403 80.23V95.97C92.5403 96.3 92.2703 96.57 91.9303 96.57C91.6003 96.57 91.3303 96.3 91.3303 95.97V84.93C91.3303 83.6 90.2503 82.53 88.9303 82.53C87.6003 82.53 86.5303 83.61 86.5303 84.93V107.07C86.5303 114.02 92.4703 119.66 99.7903 119.66C105.44 119.66 109.85 114.54 113.04 107.59L120.41 95.34C121.23 93.91 120.75 92.08 119.32 91.26V91.25Z" fill="#F2D1BE"></path><path d="M92.54 95.98V80.24" stroke="#121212" stroke-linecap="round" stroke-linejoin="round"></path><path d="M104.53 95.98V80.24" stroke="#121212" stroke-linecap="round" stroke-linejoin="round"></path><path d="M98.4004 95.9799V74.5299" stroke="#121212" stroke-linecap="round" stroke-linejoin="round"></path><path d="M147.17 99.24L138.95 105.07L146.46 121.39L128.56 123.05L126.9 140.95" stroke="#121212" stroke-linecap="round" stroke-linejoin="round"></path><path d="M204.512 171V153.637H208.183V160.801H215.635V153.637H219.297V171H215.635V163.828H208.183V171H204.512ZM222.324 153.637H225.986V164.557H226.13L233.633 153.637H236.846V171H233.176V160.072H233.048L225.503 171H222.324V153.637ZM240.583 153.637H244.152V159.233C244.152 159.9 244.268 160.437 244.5 160.844C244.732 161.245 245.091 161.536 245.577 161.717C246.068 161.892 246.698 161.98 247.467 161.98C247.738 161.98 248.058 161.971 248.425 161.954C248.793 161.932 249.171 161.9 249.561 161.861C249.957 161.821 250.33 161.773 250.68 161.717C251.031 161.66 251.322 161.595 251.553 161.522V164.421C251.316 164.5 251.019 164.571 250.663 164.633C250.313 164.69 249.943 164.741 249.553 164.786C249.163 164.825 248.784 164.856 248.417 164.879C248.049 164.902 247.733 164.913 247.467 164.913C246.071 164.913 244.856 164.715 243.822 164.319C242.787 163.918 241.988 163.299 241.422 162.463C240.863 161.626 240.583 160.55 240.583 159.233V153.637ZM250.918 153.637H254.504V171H250.918V153.637ZM258.134 171V153.637H269.834V156.664H261.805V160.801H269.232V163.828H261.805V167.973H269.868V171H258.134ZM284.274 153.637V156.664H276.423V171H272.752V153.637H284.274ZM301.787 162.319C301.787 164.212 301.428 165.823 300.71 167.151C299.998 168.479 299.026 169.494 297.794 170.195C296.567 170.89 295.188 171.237 293.657 171.237C292.114 171.237 290.729 170.887 289.503 170.186C288.276 169.485 287.307 168.471 286.595 167.143C285.882 165.814 285.526 164.206 285.526 162.319C285.526 160.425 285.882 158.814 286.595 157.486C287.307 156.158 288.276 155.146 289.503 154.451C290.729 153.75 292.114 153.4 293.657 153.4C295.188 153.4 296.567 153.75 297.794 154.451C299.026 155.146 299.998 156.158 300.71 157.486C301.428 158.814 301.787 160.425 301.787 162.319ZM298.065 162.319C298.065 161.092 297.881 160.058 297.514 159.216C297.152 158.374 296.641 157.735 295.98 157.3C295.318 156.865 294.544 156.647 293.657 156.647C292.769 156.647 291.995 156.865 291.334 157.3C290.672 157.735 290.158 158.374 289.791 159.216C289.429 160.058 289.248 161.092 289.248 162.319C289.248 163.545 289.429 164.579 289.791 165.422C290.158 166.264 290.672 166.902 291.334 167.338C291.995 167.773 292.769 167.99 293.657 167.99C294.544 167.99 295.318 167.773 295.98 167.338C296.641 166.902 297.152 166.264 297.514 165.422C297.881 164.579 298.065 163.545 298.065 162.319ZM173.772 200V182.637H177.443V189.801H184.895V182.637H188.558V200H184.895V192.828H177.443V200H173.772ZM191.584 200V182.637H203.284V185.664H195.255V189.801H202.682V192.828H195.255V196.973H203.318V200H191.584ZM226.488 182.637V200H222.859V185.622H215.839V200H212.211V182.637H226.488ZM245.938 191.319C245.938 193.212 245.579 194.823 244.861 196.151C244.149 197.479 243.177 198.494 241.945 199.195C240.718 199.89 239.339 200.237 237.808 200.237C236.265 200.237 234.88 199.887 233.654 199.186C232.427 198.485 231.458 197.471 230.746 196.143C230.033 194.814 229.677 193.206 229.677 191.319C229.677 189.425 230.033 187.814 230.746 186.486C231.458 185.158 232.427 184.146 233.654 183.451C234.88 182.75 236.265 182.4 237.808 182.4C239.339 182.4 240.718 182.75 241.945 183.451C243.177 184.146 244.149 185.158 244.861 186.486C245.579 187.814 245.938 189.425 245.938 191.319ZM242.216 191.319C242.216 190.092 242.032 189.058 241.665 188.216C241.303 187.374 240.792 186.735 240.131 186.3C239.469 185.865 238.695 185.647 237.808 185.647C236.92 185.647 236.146 185.865 235.485 186.3C234.823 186.735 234.309 187.374 233.942 188.216C233.58 189.058 233.399 190.092 233.399 191.319C233.399 192.545 233.58 193.579 233.942 194.422C234.309 195.264 234.823 195.902 235.485 196.338C236.146 196.773 236.92 196.99 237.808 196.99C238.695 196.99 239.469 196.773 240.131 196.338C240.792 195.902 241.303 195.264 241.665 194.422C242.032 193.579 242.216 192.545 242.216 191.319ZM248.657 200V182.637H252.328V189.801H259.78V182.637H263.443V200H259.78V192.828H252.328V200H248.657ZM279.796 200H276.134V185.638H273.658C272.952 185.638 272.364 185.743 271.895 185.952C271.432 186.156 271.084 186.455 270.852 186.851C270.621 187.246 270.505 187.733 270.505 188.309C270.505 188.88 270.621 189.357 270.852 189.742C271.084 190.126 271.432 190.414 271.895 190.607C272.359 190.799 272.941 190.895 273.641 190.895H277.626V193.845H273.048C271.72 193.845 270.584 193.625 269.64 193.184C268.696 192.743 267.975 192.11 267.478 191.285C266.981 190.454 266.732 189.462 266.732 188.309C266.732 187.162 266.975 186.164 267.461 185.316C267.953 184.463 268.662 183.804 269.589 183.341C270.522 182.872 271.644 182.637 272.955 182.637H279.796V200ZM270.428 192.099H274.388L270.166 200H266.113L270.428 192.099ZM282.151 185.664V182.637H296.411V185.664H291.095V200H287.467V185.664H282.151ZM298.759 200V182.637H302.43V189.801H309.882V182.637H313.545V200H309.882V192.828H302.43V200H298.759ZM332.527 191.319C332.527 193.212 332.168 194.823 331.45 196.151C330.738 197.479 329.766 198.494 328.534 199.195C327.307 199.89 325.928 200.237 324.396 200.237C322.853 200.237 321.469 199.887 320.242 199.186C319.016 198.485 318.046 197.471 317.334 196.143C316.622 194.814 316.266 193.206 316.266 191.319C316.266 189.425 316.622 187.814 317.334 186.486C318.046 185.158 319.016 184.146 320.242 183.451C321.469 182.75 322.853 182.4 324.396 182.4C325.928 182.4 327.307 182.75 328.534 183.451C329.766 184.146 330.738 185.158 331.45 186.486C332.168 187.814 332.527 189.425 332.527 191.319ZM328.805 191.319C328.805 190.092 328.621 189.058 328.254 188.216C327.892 187.374 327.381 186.735 326.719 186.3C326.058 185.865 325.284 185.647 324.396 185.647C323.509 185.647 322.735 185.865 322.073 186.3C321.412 186.735 320.898 187.374 320.53 188.216C320.169 189.058 319.988 190.092 319.988 191.319C319.988 192.545 320.169 193.579 320.53 194.422C320.898 195.264 321.412 195.902 322.073 196.338C322.735 196.773 323.509 196.99 324.396 196.99C325.284 196.99 326.058 196.773 326.719 196.338C327.381 195.902 327.892 195.264 328.254 194.422C328.621 193.579 328.805 192.545 328.805 191.319Z" fill="white"></path></g><defs><clipPath id="clip0_711_2842"><rect width="500.5" height="500.83" fill="white"></rect></clipPath></defs></svg> 