<?xml version="1.0" encoding="UTF-8"?> <svg xmlns="http://www.w3.org/2000/svg" width="136" height="33" viewBox="0 0 136 33" fill="none"><g clip-path="url(#clip0_740_1728)"><path d="M11.1475 1.0525C7.95019 2.16167 5.19285 4.26691 3.28046 7.059C1.36808 9.85109 0.401465 13.1829 0.522592 16.5649C0.643719 19.947 1.84621 23.201 3.95343 25.8492C6.06065 28.4973 8.96153 30.3999 12.23 31.2775C14.8798 31.9612 17.656 31.9913 20.32 31.365C22.7333 30.8229 24.9644 29.6634 26.795 28C28.7002 26.2159 30.0831 23.9462 30.795 21.435C31.5685 18.7041 31.7062 15.8323 31.1975 13.04H16.3175V19.2125H24.935C24.7628 20.197 24.3937 21.1366 23.8499 21.9751C23.306 22.8136 22.5986 23.5338 21.77 24.0925C20.7178 24.7888 19.5316 25.2572 18.2875 25.4675C17.0399 25.6995 15.7601 25.6995 14.5125 25.4675C13.2479 25.2063 12.0516 24.6844 11 23.935C9.31036 22.739 8.04168 21.0398 7.37499 19.08C6.69721 17.0834 6.69721 14.919 7.37499 12.9225C7.84955 11.523 8.63407 10.2488 9.66999 9.19499C10.8555 7.96686 12.3563 7.08899 14.0079 6.65769C15.6594 6.22638 17.3979 6.25832 19.0325 6.75C20.3095 7.1418 21.4772 7.82669 22.4425 8.75C23.4142 7.78333 24.3842 6.81416 25.3525 5.8425C25.8525 5.32 26.3975 4.8225 26.89 4.2875C25.4163 2.91629 23.6866 1.84926 21.8 1.1475C18.3642 -0.10003 14.6049 -0.133556 11.1475 1.0525Z" fill="white"></path><path d="M11.1474 1.05249C14.6046 -0.134368 18.3639 -0.101725 21.7999 1.14499C23.6869 1.85152 25.4158 2.92369 26.8874 4.29999C26.3874 4.83499 25.8599 5.33499 25.3499 5.85499C24.3799 6.82332 23.4108 7.78832 22.4424 8.74999C21.4772 7.82669 20.3094 7.1418 19.0324 6.74999C17.3984 6.25659 15.66 6.22281 14.008 6.65235C12.356 7.08188 10.8542 7.95814 9.66744 9.18499C8.63152 10.2388 7.84701 11.513 7.37244 12.9125L2.18994 8.89999C4.04496 5.22139 7.25681 2.40755 11.1474 1.05249Z" fill="#E33629"></path><path d="M0.81512 12.8749C1.09347 11.4943 1.55593 10.1574 2.19012 8.8999L7.37262 12.9224C6.69484 14.9189 6.69484 17.0834 7.37262 19.0799C5.64595 20.4132 3.91845 21.7532 2.19012 23.0999C0.602996 19.9407 0.118951 16.3412 0.81512 12.8749Z" fill="#F8BD00"></path><path d="M16.3175 13.0376H31.1975C31.7062 15.8299 31.5686 18.7017 30.795 21.4326C30.0831 23.9438 28.7002 26.2135 26.795 27.9976C25.1225 26.6926 23.4425 25.3976 21.77 24.0926C22.5992 23.5333 23.3069 22.8123 23.8508 21.9729C24.3946 21.1335 24.7634 20.193 24.935 19.2076H16.3175C16.315 17.1526 16.3175 15.0951 16.3175 13.0376Z" fill="#587DBD"></path><path d="M2.1875 23.1001C3.91583 21.7667 5.64333 20.4267 7.37 19.0801C8.03802 21.0406 9.30851 22.7398 11 23.9351C12.0549 24.681 13.2537 25.1987 14.52 25.4551C15.7676 25.6871 17.0474 25.6871 18.295 25.4551C19.5391 25.2448 20.7253 24.7764 21.7775 24.0801C23.45 25.3851 25.13 26.6801 26.8025 27.9851C24.9722 29.6494 22.741 30.8098 20.3275 31.3526C17.6635 31.9788 14.8873 31.9488 12.2375 31.2651C10.1418 30.7055 8.18419 29.7191 6.4875 28.3676C4.69182 26.9416 3.22509 25.1449 2.1875 23.1001Z" fill="#319F43"></path></g><path d="M56.0185 12.5696C55.8262 11.9664 55.5677 11.4261 55.2429 10.9489C54.9247 10.465 54.5436 10.054 54.0994 9.71591C53.6553 9.37121 53.1482 9.10937 52.5781 8.9304C52.0147 8.75142 51.3949 8.66193 50.7188 8.66193C49.572 8.66193 48.5379 8.95691 47.6165 9.54688C46.6951 10.1368 45.9659 11.0019 45.429 12.142C44.8987 13.2756 44.6335 14.6643 44.6335 16.3082C44.6335 17.9588 44.902 19.3542 45.4389 20.4943C45.9759 21.6345 46.7116 22.4995 47.6463 23.0895C48.581 23.6795 49.6449 23.9744 50.8381 23.9744C51.9451 23.9744 52.9096 23.7491 53.7315 23.2983C54.5601 22.8475 55.1998 22.2112 55.6506 21.3892C56.108 20.5606 56.3366 19.5862 56.3366 18.4659L57.1321 18.6151H51.3054V16.0795H59.3097V18.3963C59.3097 20.1065 58.9451 21.5914 58.2159 22.8509C57.4934 24.1037 56.4924 25.0715 55.2131 25.7543C53.9403 26.437 52.482 26.7784 50.8381 26.7784C48.9953 26.7784 47.3778 26.3542 45.9858 25.5057C44.6004 24.6572 43.5199 23.4541 42.7443 21.8963C41.9688 20.3319 41.581 18.4759 41.581 16.3281C41.581 14.7041 41.8063 13.2457 42.2571 11.9531C42.7079 10.6605 43.3409 9.56345 44.1562 8.66193C44.9782 7.75379 45.9427 7.06108 47.0497 6.58381C48.1634 6.0999 49.3797 5.85795 50.6989 5.85795C51.7992 5.85795 52.8234 6.02036 53.7713 6.34517C54.7259 6.66998 55.5743 7.13068 56.3168 7.72727C57.0658 8.32386 57.6856 9.03314 58.1761 9.85511C58.6667 10.6705 58.9981 11.5753 59.1705 12.5696H56.0185ZM69.4045 26.8082C67.9727 26.8082 66.7231 26.4801 65.6559 25.8239C64.5887 25.1676 63.7601 24.2495 63.1701 23.0696C62.5801 21.8897 62.2852 20.5109 62.2852 18.9332C62.2852 17.349 62.5801 15.9635 63.1701 14.777C63.7601 13.5904 64.5887 12.669 65.6559 12.0128C66.7231 11.3565 67.9727 11.0284 69.4045 11.0284C70.8363 11.0284 72.0858 11.3565 73.1531 12.0128C74.2203 12.669 75.0489 13.5904 75.6388 14.777C76.2288 15.9635 76.5238 17.349 76.5238 18.9332C76.5238 20.5109 76.2288 21.8897 75.6388 23.0696C75.0489 24.2495 74.2203 25.1676 73.1531 25.8239C72.0858 26.4801 70.8363 26.8082 69.4045 26.8082ZM69.4144 24.3125C70.3424 24.3125 71.1114 24.0672 71.7212 23.5767C72.3311 23.0862 72.7818 22.4332 73.0735 21.6179C73.3718 20.8026 73.521 19.9044 73.521 18.9233C73.521 17.9489 73.3718 17.054 73.0735 16.2386C72.7818 15.4167 72.3311 14.7571 71.7212 14.2599C71.1114 13.7628 70.3424 13.5142 69.4144 13.5142C68.4798 13.5142 67.7042 13.7628 67.0877 14.2599C66.4779 14.7571 66.0238 15.4167 65.7255 16.2386C65.4338 17.054 65.288 17.9489 65.288 18.9233C65.288 19.9044 65.4338 20.8026 65.7255 21.6179C66.0238 22.4332 66.4779 23.0862 67.0877 23.5767C67.7042 24.0672 68.4798 24.3125 69.4144 24.3125ZM86.2756 26.8082C84.8438 26.8082 83.5942 26.4801 82.527 25.8239C81.4598 25.1676 80.6312 24.2495 80.0412 23.0696C79.4512 21.8897 79.1562 20.5109 79.1562 18.9332C79.1562 17.349 79.4512 15.9635 80.0412 14.777C80.6312 13.5904 81.4598 12.669 82.527 12.0128C83.5942 11.3565 84.8438 11.0284 86.2756 11.0284C87.7074 11.0284 88.9569 11.3565 90.0241 12.0128C91.0914 12.669 91.92 13.5904 92.5099 14.777C93.0999 15.9635 93.3949 17.349 93.3949 18.9332C93.3949 20.5109 93.0999 21.8897 92.5099 23.0696C91.92 24.2495 91.0914 25.1676 90.0241 25.8239C88.9569 26.4801 87.7074 26.8082 86.2756 26.8082ZM86.2855 24.3125C87.2135 24.3125 87.9825 24.0672 88.5923 23.5767C89.2022 23.0862 89.6529 22.4332 89.9446 21.6179C90.2429 20.8026 90.392 19.9044 90.392 18.9233C90.392 17.9489 90.2429 17.054 89.9446 16.2386C89.6529 15.4167 89.2022 14.7571 88.5923 14.2599C87.9825 13.7628 87.2135 13.5142 86.2855 13.5142C85.3509 13.5142 84.5753 13.7628 83.9588 14.2599C83.349 14.7571 82.8949 15.4167 82.5966 16.2386C82.3049 17.054 82.1591 17.9489 82.1591 18.9233C82.1591 19.9044 82.3049 20.8026 82.5966 21.6179C82.8949 22.4332 83.349 23.0862 83.9588 23.5767C84.5753 24.0672 85.3509 24.3125 86.2855 24.3125ZM103.117 32.5455C101.904 32.5455 100.86 32.3864 99.9847 32.0682C99.1164 31.75 98.4071 31.3291 97.8569 30.8054C97.3067 30.2817 96.8957 29.7083 96.6239 29.0852L99.1793 28.0312C99.3583 28.3229 99.5969 28.6312 99.8952 28.956C100.2 29.2874 100.611 29.5691 101.128 29.8011C101.652 30.0331 102.325 30.1491 103.147 30.1491C104.274 30.1491 105.205 29.8741 105.941 29.3239C106.676 28.7803 107.044 27.9119 107.044 26.7188V23.7159H106.855C106.676 24.0407 106.418 24.402 106.08 24.7997C105.748 25.1974 105.291 25.5421 104.708 25.8338C104.124 26.1255 103.365 26.2713 102.431 26.2713C101.224 26.2713 100.137 25.9896 99.1694 25.4261C98.2082 24.8561 97.4459 24.0175 96.8825 22.9105C96.3256 21.7969 96.0472 20.428 96.0472 18.804C96.0472 17.1799 96.3223 15.7879 96.8725 14.6278C97.4293 13.4678 98.1916 12.5795 99.1594 11.9631C100.127 11.34 101.224 11.0284 102.451 11.0284C103.399 11.0284 104.164 11.1875 104.748 11.5057C105.331 11.8172 105.785 12.1818 106.11 12.5994C106.441 13.017 106.696 13.3849 106.875 13.7031H107.094V11.2273H110.007V26.8381C110.007 28.1506 109.703 29.2277 109.093 30.0696C108.483 30.9115 107.658 31.5346 106.617 31.9389C105.583 32.3433 104.416 32.5455 103.117 32.5455ZM103.087 23.8054C103.942 23.8054 104.665 23.6065 105.255 23.2088C105.851 22.8045 106.302 22.2277 106.607 21.4787C106.918 20.723 107.074 19.8182 107.074 18.7642C107.074 17.7367 106.922 16.8319 106.617 16.0497C106.312 15.2675 105.864 14.6577 105.275 14.2202C104.685 13.776 103.955 13.554 103.087 13.554C102.192 13.554 101.446 13.786 100.85 14.25C100.253 14.7074 99.8024 15.3305 99.4975 16.1193C99.1992 16.9081 99.0501 17.7898 99.0501 18.7642C99.0501 19.7652 99.2025 20.6435 99.5075 21.3991C99.8124 22.1548 100.263 22.7448 100.86 23.169C101.463 23.5933 102.205 23.8054 103.087 23.8054ZM116.968 6.13636V26.5H113.995V6.13636H116.968ZM127.55 26.8082C126.045 26.8082 124.749 26.4867 123.662 25.8438C122.581 25.1941 121.746 24.2827 121.156 23.1094C120.573 21.9295 120.281 20.5473 120.281 18.9631C120.281 17.3987 120.573 16.0199 121.156 14.8267C121.746 13.6335 122.568 12.7022 123.622 12.0327C124.683 11.3632 125.922 11.0284 127.341 11.0284C128.203 11.0284 129.038 11.1709 129.847 11.456C130.655 11.741 131.381 12.1884 132.024 12.7983C132.667 13.4081 133.174 14.2003 133.545 15.1747C133.917 16.1425 134.102 17.3191 134.102 18.7045V19.7585H121.962V17.5312H131.189C131.189 16.7491 131.03 16.0563 130.712 15.4531C130.393 14.8433 129.946 14.3627 129.369 14.0114C128.799 13.66 128.13 13.4844 127.361 13.4844C126.526 13.4844 125.796 13.6899 125.173 14.1009C124.557 14.5052 124.08 15.0355 123.741 15.6918C123.41 16.3414 123.244 17.0473 123.244 17.8097V19.5497C123.244 20.5705 123.423 21.4389 123.781 22.1548C124.146 22.8707 124.653 23.4176 125.303 23.7955C125.952 24.1667 126.711 24.3523 127.58 24.3523C128.143 24.3523 128.657 24.2727 129.121 24.1136C129.585 23.9479 129.986 23.7027 130.324 23.3778C130.662 23.053 130.92 22.652 131.099 22.1747L133.913 22.6818C133.688 23.5104 133.284 24.2363 132.7 24.8594C132.124 25.4759 131.398 25.9564 130.523 26.3011C129.654 26.6392 128.663 26.8082 127.55 26.8082Z" fill="#1A1A1A"></path><defs><clipPath id="clip0_740_1728"><rect width="32" height="32" fill="white"></rect></clipPath></defs></svg> 