<?xml version="1.0" encoding="UTF-8"?> <svg xmlns="http://www.w3.org/2000/svg" width="3729" height="621" viewBox="0 0 3729 621" fill="none"><path opacity="0.5" d="M3724.22 89.8086C3722.85 89.8086 3721.82 90.4916 3720.8 91.516L3683.21 65.5637C3683.55 64.8807 3683.9 64.1978 3683.9 63.5148C3683.9 61.1245 3681.85 59.0756 3679.45 59.0756C3677.06 59.0756 3675.01 61.1245 3675.01 63.5148V63.8563L3474.77 113.029C3474.09 111.322 3472.72 110.297 3470.67 110.297C3468.97 110.297 3467.26 111.322 3466.57 113.029L3358.6 78.1984C3358.6 77.8569 3358.94 77.5154 3358.94 77.1739C3358.94 74.7836 3356.89 72.7347 3354.49 72.7347C3352.1 72.7347 3350.05 74.7836 3350.05 77.1739C3350.05 77.5154 3350.05 77.8569 3350.39 78.1984L3208.93 133.176C3208.25 131.81 3206.88 130.786 3205.17 130.786C3203.12 130.786 3201.41 132.152 3201.07 133.859L3035 109.956C3035 107.565 3032.95 105.517 3030.56 105.517C3028.17 105.517 3026.12 107.565 3026.12 109.956C3026.12 110.639 3026.46 111.322 3026.8 112.005L2927.71 183.373C2927.03 182.349 2925.66 182.008 2924.63 182.008C2922.58 182.008 2921.22 183.373 2920.53 185.081L2771.89 159.129V158.787C2771.89 156.397 2769.84 154.348 2767.45 154.348C2765.4 154.348 2763.69 156.055 2763.35 157.763L2573.71 147.86C2573.71 145.469 2571.66 143.762 2569.61 143.762C2568.58 143.762 2567.56 144.104 2566.87 144.787L2405.93 6.82955C2406.27 6.1466 2406.61 5.46364 2406.61 4.43921C2406.61 2.04886 2404.56 0 2402.17 0C2399.78 0 2397.73 2.04886 2397.73 4.43921C2397.73 4.78068 2397.73 4.78069 2397.73 5.12216L2191.68 70.6859C2191 69.32 2189.63 68.2955 2187.93 68.2955C2185.53 68.2955 2183.48 70.3444 2183.48 72.7347C2183.48 73.4177 2183.82 74.1006 2184.17 74.7836L2026.3 186.105C2025.62 185.081 2024.25 184.739 2023.22 184.739C2020.83 184.739 2018.78 186.788 2018.78 189.179C2018.78 190.203 2019.12 191.569 2020.15 192.252L1898.85 349.332C1898.16 348.99 1897.48 348.649 1896.8 348.649C1894.4 348.649 1892.35 350.697 1892.35 353.088C1892.35 353.429 1892.35 353.771 1892.69 354.112L1709.2 429.579C1708.52 428.213 1707.15 427.53 1705.44 427.53C1703.05 427.53 1701 429.579 1701 431.969C1701 434.36 1703.05 436.408 1705.44 436.408C1706.47 436.408 1707.49 436.067 1708.52 435.042L1797.7 511.533C1797.36 512.216 1797.02 512.899 1797.02 513.924C1797.02 516.314 1799.07 518.363 1801.46 518.363C1803.17 518.363 1804.54 517.339 1805.22 516.314L1957.96 581.195C1957.96 581.536 1957.62 581.878 1957.62 582.561C1957.62 584.951 1959.67 587 1962.06 587C1964.45 587 1966.5 584.951 1966.5 582.561C1966.5 581.878 1966.16 581.195 1965.82 580.512L2105.57 486.264C2106.26 487.289 2107.63 487.971 2108.65 487.971C2110.7 487.971 2112.41 486.264 2112.75 484.215L2305.81 487.63C2306.15 489.679 2307.86 491.386 2309.91 491.386C2311.28 491.386 2312.65 490.703 2313.33 489.337L2489.99 571.292C2489.99 571.634 2489.65 571.975 2489.65 572.658C2489.65 575.048 2491.7 577.097 2494.09 577.097C2496.48 577.097 2498.53 575.048 2498.53 572.658C2498.53 571.975 2498.53 571.292 2498.19 570.951L2569.26 530.656C2569.95 531.681 2571.31 532.705 2572.68 532.705C2574.39 532.705 2576.1 531.681 2576.78 529.973L2739.43 568.902C2739.43 569.243 2739.43 569.243 2739.43 569.585C2739.43 571.975 2741.48 574.024 2743.87 574.024C2746.27 574.024 2748.32 571.975 2748.32 569.585C2748.32 568.902 2747.97 567.877 2747.63 567.536L2898.32 446.653C2899.01 447.336 2900.03 448.019 2901.4 448.019C2903.11 448.019 2904.47 446.994 2905.16 445.628L3074.64 500.948C3074.64 501.289 3074.64 501.631 3074.64 501.631C3074.64 504.021 3076.69 506.07 3079.08 506.07C3081.48 506.07 3083.53 504.021 3083.53 501.631C3083.53 500.606 3083.18 499.923 3082.5 498.899L3182.28 405.675C3182.96 406.358 3183.99 406.7 3185.01 406.7C3187.4 406.7 3189.45 404.651 3189.45 402.261C3189.45 401.578 3189.11 400.895 3189.11 400.212L3342.54 299.134C3343.22 300.159 3344.59 300.842 3345.61 300.842C3348 300.842 3350.05 298.793 3350.05 296.403C3350.05 295.037 3349.37 294.012 3348.69 293.329L3381.15 249.279L3553.02 208.301C3553.71 210.009 3555.07 211.033 3557.12 211.033C3559.52 211.033 3561.57 208.984 3561.57 206.594C3561.57 205.911 3561.22 205.228 3561.22 204.545L3721.48 96.6382C3722.17 97.6626 3723.53 98.0041 3724.56 98.0041C3726.95 98.0041 3729 95.9552 3729 93.5649C3728.66 91.8575 3726.61 89.8086 3724.22 89.8086ZM1709.88 430.945L1893.38 355.478C1893.72 355.82 1894.06 356.503 1894.4 356.844L1803.17 510.168C1802.49 509.826 1802.14 509.826 1801.46 509.826C1800.44 509.826 1799.41 510.168 1798.39 511.192L1709.2 434.701C1709.54 434.018 1709.88 433.335 1709.88 432.311C1709.88 431.628 1709.88 431.286 1709.88 430.945ZM3187.4 398.163C3187.06 397.821 3186.38 397.48 3185.69 397.138L3199.7 292.646C3201.07 291.963 3202.1 290.939 3202.44 289.232L3305.97 294.012L3187.4 398.163ZM2743.87 564.462C2743.53 564.462 2742.85 564.462 2742.51 564.804L2660.84 391.333C2661.87 390.65 2662.89 389.284 2662.89 387.919L2767.11 381.43C2767.45 383.138 2768.48 384.504 2770.18 384.845L2743.87 564.462ZM2573.36 523.485C2572.68 523.485 2572 523.827 2571.31 524.168L2467.1 384.162C2467.78 383.479 2468.12 382.796 2468.46 381.772L2654.69 388.26C2654.69 389.626 2655.37 390.65 2656.4 391.333L2575.41 524.168C2574.39 523.485 2574.05 523.485 2573.36 523.485ZM1803.85 510.851L1895.09 357.527C1895.77 357.869 1896.11 357.869 1896.8 357.869C1897.14 357.869 1897.82 357.869 1898.16 357.527L1939.17 448.702C1937.8 449.385 1936.77 450.75 1936.77 452.458C1936.77 452.799 1936.77 453.482 1937.12 453.824L1804.88 511.875C1804.88 511.533 1804.19 511.192 1803.85 510.851ZM2026.64 192.593L2145.9 273.182C2145.55 273.865 2145.21 274.548 2145.21 275.231L2042.02 282.402C2041.68 280.353 2039.97 278.646 2037.92 278.646H2037.58L2024.25 193.959C2025.28 193.618 2025.96 193.276 2026.64 192.593ZM2402.17 9.90286L2411.74 151.616C2409.69 151.958 2408.32 153.665 2408.32 155.714C2408.32 155.714 2408.32 155.714 2408.32 156.055L2310.6 168.69C2310.25 167.666 2309.91 166.983 2308.89 166.3L2400.46 9.90286C2401.15 9.56138 2401.83 9.90286 2402.17 9.90286ZM2565.51 149.567C2565.51 149.909 2565.51 150.25 2565.85 150.592L2500.58 188.837L2416.87 156.738C2416.87 156.397 2416.87 156.397 2416.87 156.055L2565.51 149.567ZM3352.44 80.2472C3353.13 80.9302 3353.81 81.2717 3354.84 81.2717L3346.98 249.62L3245.15 166.641L3352.44 80.2472ZM3474.77 117.468C3475.46 116.785 3475.8 116.102 3475.8 115.078H3621.02C3621.02 115.078 3621.02 115.078 3621.02 115.419L3503.14 148.201L3474.77 117.468ZM3621.36 116.444C3621.71 117.127 3622.05 117.468 3622.39 118.151L3559.17 203.521C3558.49 203.179 3557.81 202.838 3557.12 202.838C3556.1 202.838 3555.42 203.179 3554.39 203.862L3503.82 149.226L3621.36 116.444ZM3623.07 118.493C3623.76 118.834 3624.44 119.176 3625.12 119.176C3627.51 119.176 3629.56 117.127 3629.56 114.736C3629.56 114.395 3629.56 114.395 3629.56 114.395L3637.08 112.688L3564.64 197.374L3623.07 118.493ZM3629.22 113.712V113.371L3641.52 107.565L3637.77 112.005L3629.22 113.712ZM3442.65 162.202C3441.97 161.86 3441.29 161.519 3440.6 161.519C3439.92 161.519 3439.58 161.519 3438.9 161.86L3464.86 124.981L3442.65 162.202ZM3436.5 165.958C3436.5 166.983 3436.84 168.007 3437.53 168.69L3427.62 178.593L3436.5 165.958ZM3443 162.543L3469.31 118.493C3469.99 118.834 3470.67 119.176 3471.36 119.176C3472.38 119.176 3473.07 118.834 3474.09 118.151L3502.11 148.543L3444.7 164.592C3444.36 163.568 3443.68 162.885 3443 162.543ZM3679.11 89.1257L3644.6 105.517L3656.56 91.8575L3679.11 88.7842C3679.11 88.7842 3679.11 88.7842 3679.11 89.1257ZM3679.11 87.4183L3657.93 90.1501L3677.74 66.9296C3678.43 67.2711 3679.11 67.6126 3680.14 67.6126H3680.48L3682.87 83.3205C3680.48 83.662 3679.11 85.3694 3679.11 87.4183ZM3656.22 90.4916L3651.09 91.1745L3675.01 68.9785L3656.22 90.4916ZM3655.19 91.516L3642.55 106.2L3628.88 112.688C3628.88 112.346 3628.54 112.346 3628.54 112.005L3649.73 92.199L3655.19 91.516ZM3628.2 111.663C3627.51 110.98 3626.49 110.639 3625.46 110.639C3623.41 110.639 3621.36 112.346 3621.36 114.395H3479.56L3649.04 92.5404L3628.2 111.663ZM3437.53 162.202L3434.45 158.787L3464.86 123.273L3437.53 162.202ZM3437.19 162.885L3423.18 183.032L3359.62 246.547L3434.11 159.47L3437.19 162.885ZM3084.89 387.919C3084.21 387.577 3083.53 387.236 3082.84 386.894L3095.14 286.5L3119.06 287.183L3145.72 334.307L3084.89 387.919ZM2662.89 387.236C2662.89 386.211 2662.21 385.528 2661.52 384.845L2703.21 325.428L2767.79 379.04C2767.45 379.723 2767.11 380.406 2767.11 381.089L2662.89 387.236ZM2468.12 380.748C2468.12 380.065 2467.78 379.723 2467.78 379.04L2584.3 298.11L2655.71 384.845C2655.03 385.528 2654.69 386.211 2654.69 387.236L2468.12 380.748ZM2042.02 283.426V283.085L2145.21 275.914C2145.55 277.621 2146.58 278.646 2147.95 279.329L2142.14 308.354L2042.02 283.426ZM2569.95 153.323C2570.29 153.323 2570.63 153.323 2570.63 153.323L2588.74 220.253C2587.72 220.595 2587.03 221.277 2586.35 222.302L2544.66 206.252L2567.9 152.982C2568.92 152.982 2569.26 153.323 2569.95 153.323ZM2703.89 324.404L2768.48 232.546L2770.87 376.65C2769.84 376.65 2769.16 376.991 2768.48 377.674L2703.89 324.404ZM2536.12 235.961L2571.31 246.888L2557.3 264.304L2535.09 237.327C2535.78 236.644 2536.12 236.303 2536.12 235.961ZM2536.46 234.937C2536.46 234.595 2536.8 234.254 2536.8 233.912L2586.69 225.034C2587.03 225.717 2587.03 226.4 2587.72 226.741L2572.34 245.864L2536.46 234.937ZM2588.06 227.424C2588.74 227.766 2589.42 228.107 2590.11 228.107C2590.45 228.107 2590.79 228.107 2591.13 227.766L2602.75 255.425L2572.68 246.205L2588.06 227.424ZM2627.7 267.035L2613 277.28L2604.8 257.133L2627.35 263.962C2627.35 264.304 2627.01 264.645 2627.01 264.987C2627.01 265.67 2627.35 266.353 2627.7 267.035ZM2628.04 267.718C2628.72 268.743 2630.09 269.084 2631.11 269.084C2631.45 269.084 2631.45 269.084 2631.8 269.084L2657.08 383.138L2613.34 277.963L2628.04 267.718ZM2627.35 263.279L2604.12 256.108L2592.16 227.766C2592.5 227.766 2592.84 227.424 2592.84 227.424L2627.7 262.255C2627.7 262.596 2627.35 262.938 2627.35 263.279ZM2527.92 234.595L2382.35 260.547V260.206L2481.45 201.813L2528.26 232.546C2528.26 232.888 2527.92 233.571 2527.92 234.595C2527.92 234.254 2527.92 234.254 2527.92 234.595ZM2532.36 238.351C2533.04 238.351 2534.07 238.01 2534.75 237.668L2556.96 264.645L2466.41 377.333L2531.34 238.351C2531.34 238.351 2531.68 238.351 2532.36 238.351ZM2467.1 378.016L2557.65 265.67L2583.62 297.427L2467.1 378.016ZM2557.99 264.645L2572.34 246.888L2603.43 256.45L2612.32 277.28L2584.64 296.403L2557.99 264.645ZM2612.66 278.646L2656.74 384.162C2656.74 384.162 2656.74 384.162 2656.4 384.162L2584.98 297.427L2612.66 278.646ZM2658.45 383.479C2658.11 383.479 2658.11 383.479 2657.76 383.479L2632.14 268.743C2632.82 268.401 2633.5 268.401 2633.85 267.718L2702.19 324.404L2660.16 383.821C2660.16 383.821 2659.47 383.479 2658.45 383.479ZM2634.87 267.377C2635.21 266.694 2635.55 266.011 2635.55 264.987C2635.55 264.645 2635.55 264.304 2635.21 263.962L2768.13 219.229L2768.48 230.497L2703.21 323.379L2634.87 267.377ZM2769.5 231.18L2778.39 218.887C2778.73 219.229 2779.07 219.229 2779.75 219.229L2771.89 366.405L2769.5 231.18ZM2775.99 215.472L2769.16 217.863V215.814L2775.99 215.472ZM2776.34 216.497C2776.68 217.18 2777.02 217.521 2777.36 217.863L2769.5 229.131V218.887L2776.34 216.497ZM2791.03 227.083L2895.93 338.746L2894.91 344.892L2890.46 346.258L2791.03 227.083ZM3082.16 133.859L3137.86 208.301L3101.98 247.913C3101.29 247.23 3100.27 246.888 3099.59 246.888H3099.24L3080.11 132.493L3082.16 133.859ZM3208.93 190.886C3208.93 191.227 3208.59 191.569 3208.59 192.252C3208.59 192.935 3208.59 193.276 3208.93 193.959L3202.78 197.033L3203.12 188.496L3208.93 190.886ZM3196.29 285.134L3151.18 224.692L3201.75 198.398L3198 284.792C3197.31 284.451 3196.63 284.792 3196.29 285.134ZM3102.32 248.596L3138.2 208.984L3149.82 224.351L3103 248.937C3102.66 248.937 3102.66 248.596 3102.32 248.596ZM3103.34 252.352C3103.34 252.01 3103.69 251.669 3103.69 251.328C3103.69 250.645 3103.69 250.303 3103.34 249.62L3150.5 225.034L3195.6 285.475C3195.26 285.817 3194.92 286.158 3194.58 286.841L3103.34 252.352ZM3202.78 197.716L3209.61 194.301C3210.3 195.325 3210.98 195.667 3212.01 196.008L3210.98 204.204L3199.36 281.378L3202.78 197.716ZM3201.75 197.374L3150.5 224.009L3138.88 208.301L3170.66 173.471L3202.44 187.813L3201.75 197.374ZM3138.54 207.618L3084.21 134.542L3169.98 173.129L3138.54 207.618ZM3028.17 283.768L2985.12 282.743V282.402L3094.46 253.035L3028.17 283.768ZM2904.82 341.136L2951.63 305.622L2909.26 339.087L2904.82 341.136ZM2897.98 340.795C2897.3 341.478 2896.96 342.502 2896.96 343.526C2896.96 343.868 2896.96 344.209 2896.96 344.209L2895.93 344.551L2896.96 339.77L2897.98 340.795ZM2895.59 345.234L2896.96 344.892C2897.3 345.575 2897.64 345.917 2897.98 346.258L2896.61 347.624C2896.27 347.283 2895.59 346.941 2895.25 346.941L2895.59 345.234ZM2897.3 348.307L2898.32 346.6C2898.32 346.6 2898.66 346.941 2899.01 346.941L2897.3 348.307ZM2911.99 337.721L2977.6 285.817C2977.94 286.158 2978.28 286.158 2978.28 286.5L2964.95 312.793L2911.99 337.721ZM2979.31 287.183C2979.65 287.183 2980.33 287.524 2980.67 287.524C2981.7 287.524 2982.38 287.183 2983.07 286.5L2995.02 299.134L2966.66 312.452L2979.31 287.183ZM2983.75 285.817C2984.43 285.134 2984.43 284.451 2984.77 283.768L3025.78 284.792L2996.05 298.793L2983.75 285.817ZM2976.57 282.402C2976.57 282.743 2976.57 283.085 2976.57 283.085C2976.57 283.768 2976.91 284.792 2977.26 285.475L2904.47 340.795C2903.79 340.112 2903.11 339.77 2902.42 339.429L2914.38 260.889L2976.57 282.402ZM2894.91 345.575L2894.56 346.941H2894.22C2893.2 346.941 2892.51 347.283 2891.83 347.624L2890.81 346.6L2894.91 345.575ZM2897.64 348.99L2899.69 347.283C2900.03 347.283 2900.37 347.624 2900.71 347.624V352.063L2898.32 351.722V351.38C2898.32 350.356 2897.98 349.673 2897.64 348.99ZM2905.16 342.843L2907.89 340.453L2964.27 314.159L2944.45 354.112L2905.16 343.868C2905.16 343.526 2905.16 343.526 2905.16 343.185C2905.5 343.185 2905.5 343.185 2905.16 342.843ZM3030.56 283.768L3095.83 253.376C3096.51 254.401 3097.19 255.084 3098.56 255.084L3094.8 285.134L3030.56 283.768ZM3099.24 255.425C3099.93 255.425 3100.61 255.425 3100.95 255.084L3118.72 286.158L3095.83 285.475L3099.24 255.425ZM3101.64 254.742C3102.32 254.401 3102.66 253.718 3103 253.035L3194.24 287.524V287.866L3119.75 285.817L3101.64 254.742ZM3209.27 189.862L3203.12 187.13L3205.17 139.664L3212.01 188.154C3210.98 188.154 3209.95 188.837 3209.27 189.862ZM2924.98 190.545C2925.66 190.545 2926.34 190.544 2926.68 190.203L2978.28 279.67C2977.6 280.012 2977.26 280.695 2976.91 281.378L2914.38 260.206L2924.98 190.545ZM2775.99 214.106V214.448L2769.16 214.789V212.058L2775.99 214.106ZM2586.35 222.985C2586.35 223.326 2586.01 223.668 2586.01 224.009C2586.01 224.009 2586.01 224.009 2586.01 224.351L2536.12 233.229C2535.78 232.205 2535.09 231.18 2534.07 230.839L2544.32 207.277L2586.35 222.985ZM2480.42 200.789L2381.67 258.84C2381.33 258.157 2380.64 257.816 2379.96 257.474L2411.4 159.812C2411.74 159.812 2412.08 160.153 2412.42 160.153C2413.79 160.153 2414.82 159.47 2415.84 158.446L2480.42 200.789ZM2411.06 159.812L2379.62 257.474C2379.28 257.474 2378.94 257.133 2378.59 257.133C2377.57 257.133 2376.89 257.474 2376.2 257.816L2338.27 209.326L2409.35 158.446C2410.03 159.129 2410.37 159.47 2411.06 159.812ZM2306.84 173.471C2307.86 173.471 2308.55 173.129 2309.23 172.788L2337.25 208.984L2261.39 262.938L2305.13 173.129C2305.81 173.471 2306.15 173.471 2306.84 173.471ZM2259.68 264.304L2248.41 272.499L2248.06 272.158L2301.03 180.642L2259.68 264.304ZM2244.31 279.329C2244.65 279.329 2244.99 279.67 2245.33 279.67C2245.67 279.67 2245.67 279.67 2246.01 279.67L2248.41 287.524L2229.95 325.428L2244.31 279.329ZM2247.04 278.987C2248.41 278.304 2249.43 276.938 2249.43 275.231L2254.56 274.548L2249.09 285.817L2247.04 278.987ZM2249.43 274.207C2249.43 273.865 2249.09 273.524 2249.09 273.182L2258.66 266.353L2254.9 273.865L2249.43 274.207ZM2153.41 277.28C2153.75 276.597 2154.1 276.255 2154.1 275.572H2234.4C2234.74 277.621 2236.45 279.67 2238.5 279.67C2239.86 279.67 2240.89 278.987 2241.91 277.963L2242.26 278.304C2242.6 278.646 2243.28 278.987 2243.96 279.329L2229.27 325.77C2228.93 325.77 2228.59 325.428 2228.25 325.428C2226.88 325.428 2225.85 326.111 2224.83 327.136L2153.41 277.28ZM2256.27 273.524L2260.37 264.987L2337.59 209.667L2375.52 258.157C2374.84 258.84 2374.15 260.206 2374.15 261.23L2256.27 273.524ZM2771.89 376.65L2780.44 218.887C2781.12 218.887 2781.8 218.546 2782.49 218.204L2889.1 346.258L2774.97 379.382C2774.63 378.016 2773.6 376.991 2771.89 376.65ZM2965.98 313.818L2996.05 299.817L3079.08 388.26C3078.74 388.602 3078.4 388.943 3078.4 389.626L2945.82 354.454L2965.98 313.818ZM3082.16 386.894C3081.13 386.894 3080.45 387.236 3079.42 387.919L2996.73 299.476L3028.17 284.792L3094.46 286.5L3082.16 386.894ZM3199.36 284.792L3205.17 246.205L3200.05 284.792C3199.7 284.792 3199.36 284.792 3199.36 284.792ZM3217.13 193.276C3217.13 192.935 3217.47 192.252 3217.47 191.91C3217.47 191.227 3217.13 190.203 3216.79 189.52L3237.63 172.788L3280 221.619L3217.13 193.276ZM3204.49 139.323L3202.44 186.447L3172.03 172.105L3202.78 138.64C3203.12 138.981 3203.8 139.323 3204.49 139.323ZM3082.84 132.835L3081.82 131.469C3082.16 131.127 3082.16 130.786 3082.5 130.444L3170.66 172.105L3082.84 132.835ZM3074.64 130.444L3075.32 130.786C3075.67 131.127 3076.01 131.469 3076.35 131.81L3056.87 162.543L3046.62 141.372L3074.64 130.444ZM3076.69 132.152C3077.37 132.493 3077.72 132.493 3078.4 132.493H3078.74L3097.88 247.23H3097.54L3056.87 163.226L3076.69 132.152ZM3096.85 247.571C3096.17 247.913 3095.83 248.596 3095.14 249.279L3019.97 221.278L3056.19 164.251L3096.85 247.571ZM3095.14 250.303C3095.14 250.645 3094.8 250.986 3094.8 251.328C3094.8 251.669 3094.8 251.669 3094.8 252.01L2984.43 281.719C2984.09 281.036 2983.75 280.353 2983.07 280.012L3019.63 222.302L3095.14 250.303ZM2982.38 279.329L3000.83 215.131L3018.94 221.96L2982.38 279.329ZM2981.36 278.987C2981.01 278.987 2981.01 278.987 2980.67 278.987C2979.99 278.987 2979.31 278.987 2978.96 279.329L2927.37 189.862C2928.05 189.52 2928.39 188.837 2928.73 188.496L2999.81 215.131L2981.36 278.987ZM2913.36 259.523L2911.99 258.84L2920.53 212.741L2913.36 259.523ZM2913.36 260.547L2901.4 339.087C2901.4 339.087 2901.4 339.087 2901.06 339.087C2900.37 339.087 2899.69 339.429 2899.01 339.77L2897.3 337.38L2911.65 260.206L2913.36 260.547ZM2896.61 336.014L2818.71 228.449L2910.62 259.864L2896.61 336.014ZM2895.93 337.038L2783.51 217.521C2783.85 217.18 2783.85 216.838 2784.19 216.497L2817 227.766L2895.93 337.038ZM2776.34 213.082L2769.16 210.692L2768.48 163.226L2779.07 210.692C2778.04 211.033 2777.02 212.058 2776.34 213.082ZM2768.13 211.716V215.131L2691.94 218.546L2720.3 196.691L2768.13 211.716ZM2768.13 215.814V218.204L2635.21 262.938L2634.87 262.596L2690.57 219.57L2768.13 215.814ZM2634.53 261.913C2633.85 261.23 2632.82 260.547 2631.45 260.547C2630.77 260.547 2630.43 260.547 2629.75 260.889L2609.93 223.326L2688.86 219.57L2634.53 261.913ZM2629.06 261.23L2628.72 261.572L2593.87 226.741C2594.55 226.058 2594.89 225.034 2594.89 224.351L2609.24 223.668L2629.06 261.23ZM2594.55 223.326L2606.51 218.546L2608.56 222.643L2594.55 223.326ZM2594.21 221.96C2593.53 220.595 2592.16 219.57 2590.45 219.57C2590.11 219.57 2589.77 219.57 2589.77 219.57L2571.66 152.64C2571.66 152.64 2571.66 152.64 2572 152.64L2606.51 217.521L2594.21 221.96ZM2543.98 206.594L2533.73 230.156C2533.39 230.156 2532.7 229.814 2532.36 229.814C2530.99 229.814 2529.97 230.497 2528.94 231.522L2482.47 201.13L2500.92 190.203L2543.98 206.594ZM2481.45 200.447L2416.52 157.763L2499.56 189.52L2481.45 200.447ZM2409.01 157.763L2337.93 208.643L2309.91 172.446C2310.6 171.763 2311.28 170.397 2311.28 169.373C2311.28 169.373 2311.28 169.373 2311.28 169.031L2409.01 156.397C2408.66 157.08 2408.66 157.421 2409.01 157.763ZM2304.1 172.788L2247.04 271.133C2246.36 270.792 2245.67 270.45 2244.65 270.45C2244.31 270.45 2244.31 270.45 2243.96 270.45L2229.95 221.278L2303.08 172.105C2303.76 172.446 2304.1 172.446 2304.1 172.788ZM2243.28 270.792C2242.6 271.133 2242.26 271.475 2241.57 272.158C2240.89 271.475 2239.86 270.792 2238.5 270.792C2236.11 270.792 2234.4 272.499 2234.4 274.889H2154.1C2154.1 274.207 2153.75 273.865 2153.75 273.182L2229.61 221.96L2243.28 270.792ZM2149.31 279.329C2149.65 279.329 2149.65 279.329 2149.31 279.329C2151.02 279.329 2152.05 278.646 2152.73 277.621L2224.49 327.477C2224.49 327.819 2224.15 327.818 2224.15 328.16L2143.5 308.354L2149.31 279.329ZM2230.64 326.111L2249.09 288.549L2257.63 315.867L2232.35 327.477C2231.66 327.136 2230.98 326.453 2230.64 326.111ZM2249.77 287.183L2255.92 274.548L2374.49 262.255V262.596L2258.32 315.525L2249.77 287.183ZM2382.7 261.572L2527.92 235.62C2528.26 236.644 2528.94 237.327 2529.63 238.01L2464.7 376.991C2464.36 376.991 2463.68 376.65 2463.34 376.65C2462.65 376.65 2461.97 376.991 2461.29 377.333L2380.64 264.645C2382.35 263.962 2382.7 262.938 2382.7 261.572ZM2890.12 346.941L2891.15 348.307C2890.46 348.99 2889.78 350.015 2889.78 351.38C2889.78 351.722 2889.78 351.722 2889.78 352.063L2788.3 376.65L2890.12 346.941ZM2898.32 352.746L2901.06 353.429V433.677L2895.25 355.478C2896.27 355.137 2897.64 354.112 2898.32 352.746ZM2901.4 438.116V353.429L2940.69 361.625L2902.42 438.457C2902.08 438.116 2901.74 438.116 2901.4 438.116ZM2901.4 352.405V347.624C2903.11 347.624 2904.47 346.6 2905.16 344.892L2944.11 355.137L2941.38 360.6L2901.4 352.405ZM2945.14 355.478L3062.34 386.553L2942.4 361.283L2945.14 355.478ZM3120.09 287.183L3193.9 289.232C3193.9 289.914 3194.24 290.597 3194.58 291.28L3146.4 333.624L3120.09 287.183ZM3195.26 291.963C3195.95 292.305 3196.63 292.646 3197.31 292.988L3185.69 389.284L3184.67 397.138C3183.99 397.138 3183.64 397.138 3182.96 397.48L3147.08 334.648L3195.26 291.963ZM3198 292.988C3198.34 292.988 3198.34 292.988 3198.68 292.988L3192.87 336.355L3198 292.988ZM3200.73 285.475L3212.69 196.35C3214.06 196.35 3215.08 196.008 3215.76 194.984L3304.61 264.645L3202.1 287.524C3202.1 286.5 3201.41 286.158 3200.73 285.475ZM3216.45 194.301L3281.03 223.326L3315.2 262.255L3305.97 264.304L3216.45 194.301ZM3342.88 291.963L3328.87 275.572L3346.64 260.206L3345.27 291.28C3343.9 291.622 3343.22 291.622 3342.88 291.963ZM3327.84 274.889L3317.25 262.596L3346.29 256.108V258.499L3327.84 274.889ZM3347.66 256.108H3348C3348 256.45 3348.34 256.791 3348.34 257.133L3347.32 258.157L3347.66 256.108ZM3351.42 250.303C3350.39 250.303 3349.37 250.645 3348.69 251.328L3347.66 250.303L3354.15 114.395L3351.42 250.303ZM3348.34 252.352H3347.66V252.01L3348.34 252.352ZM3348 253.376C3348 253.718 3347.66 254.401 3347.66 254.742V255.084H3347.32L3348 253.376ZM3346.29 255.425L3316.22 261.913L3283.42 224.351L3346.64 252.693L3346.29 255.425ZM3315.88 263.279L3326.82 275.914L3323.74 278.646L3306.66 265.328L3315.88 263.279ZM3327.84 276.597L3341.17 291.963L3324.77 278.987L3327.84 276.597ZM3347.32 259.523L3349.03 257.816C3349.71 258.157 3350.05 258.499 3350.74 258.84L3345.61 288.89L3347.32 259.523ZM3236.61 172.105L3215.76 188.837C3215.08 188.154 3214.06 187.471 3212.69 187.471H3212.35L3205.51 138.981C3206.2 138.981 3206.54 138.64 3206.88 138.298L3236.61 172.105ZM3045.94 140.347L3032.95 113.712C3033.64 113.371 3033.98 113.029 3034.32 112.346L3073.27 129.761L3045.94 140.347ZM2767.45 163.226L2768.13 210.35L2721.32 195.667L2764.72 161.86C2765.4 162.885 2766.43 163.226 2767.45 163.226ZM2567.9 152.64L2544.32 205.911L2501.95 189.52L2566.53 151.616C2566.87 151.958 2567.21 152.299 2567.9 152.64ZM2108.65 479.093C2108.31 479.093 2107.97 479.093 2107.63 479.435L2039.97 286.841C2040.99 286.5 2041.68 285.475 2042.02 284.451L2142.48 309.037L2108.65 479.093C2108.99 479.093 2108.99 479.093 2108.65 479.093ZM3354.15 251.328C3353.47 250.986 3353.13 250.645 3352.44 250.645L3355.86 81.6132C3356.55 81.6132 3357.57 81.2717 3358.25 80.5887L3433.43 158.787L3354.15 251.328ZM3346.64 250.986V251.669L3282.4 222.643L3238.32 172.105L3244.13 167.324L3346.64 250.986ZM3237.63 171.422L3209.61 139.323L3243.44 166.641L3237.63 171.422ZM3200.73 135.225C3200.73 136.25 3201.07 137.274 3201.75 137.957L3171 171.763L3082.84 129.761C3082.84 129.42 3082.84 129.079 3082.84 129.079L3200.73 135.225ZM3074.64 129.42L3043.2 115.419L3074.64 127.371C3074.64 127.713 3074.3 128.054 3074.3 128.737C3074.3 128.737 3074.64 129.079 3074.64 129.42ZM3030.9 114.395C3031.59 114.395 3031.93 114.395 3032.27 114.054L3045.25 140.347L3019.97 149.909L3030.22 114.054C3030.22 114.395 3030.56 114.395 3030.9 114.395ZM3045.6 141.372L3056.19 163.226L3019.63 220.936L3001.18 214.106L3019.29 151.275L3045.6 141.372ZM3000.15 213.765L2929.08 187.13C2929.08 186.788 2929.42 186.447 2929.42 186.105C2929.42 185.764 2929.42 185.422 2929.08 185.081L3018.26 151.275L3000.15 213.765ZM2923.95 190.545L2911.31 258.84L2818.02 227.083L2806.06 210.35L2921.56 187.813C2921.22 188.837 2922.58 190.203 2923.95 190.545ZM2815.63 226.4L2784.19 215.814C2784.19 215.472 2784.19 215.131 2784.19 215.131V214.789L2804.01 211.033L2815.63 226.4ZM2784.19 213.424C2783.51 211.716 2782.14 210.35 2780.09 210.35C2779.75 210.35 2779.75 210.35 2779.41 210.35L2769.16 163.226C2769.5 163.226 2769.84 162.885 2769.84 162.885L2803.67 209.667L2784.19 213.424ZM2764.38 161.177L2720.3 195.325L2693.3 186.788L2764.38 161.177ZM2719.27 196.35L2690.23 218.887L2609.24 222.643L2607.19 218.546L2691.59 187.813L2719.27 196.35ZM2606.51 217.521L2572 152.299C2572.68 151.958 2573.36 151.275 2573.71 150.592L2689.88 187.13L2606.51 217.521ZM2302.74 171.08L2229.95 220.253L2189.63 77.5154C2190.32 77.1739 2190.66 76.8325 2191 76.491L2302.74 166.641C2302.4 167.324 2302.05 168.007 2302.05 169.031C2302.4 170.056 2302.74 170.739 2302.74 171.08ZM2188.27 77.8569C2188.61 77.8569 2188.61 77.8569 2188.95 77.8569L2229.27 220.936L2153.07 272.499C2152.73 271.816 2152.05 271.475 2151.02 271.133L2188.27 77.8569ZM2035.53 286.5L1943.27 448.702C1942.58 448.36 1942.24 448.36 1941.56 448.36C1941.22 448.36 1940.53 448.36 1940.19 448.702L1899.19 357.527C1900.55 356.844 1901.58 355.478 1901.58 353.771C1901.58 353.088 1901.58 352.746 1901.24 352.405L2034.84 285.475C2034.84 285.817 2035.18 286.158 2035.53 286.5ZM1943.95 449.385L2036.21 287.183C2036.89 287.524 2037.23 287.524 2037.92 287.524C2038.26 287.524 2038.6 287.524 2038.94 287.183L2106.94 479.435C2105.92 480.117 2105.23 480.8 2104.89 482.166L1945.66 452.799V452.458C1945.66 451.092 1944.98 450.068 1943.95 449.385ZM2110.02 479.435L2143.5 309.72L2224.15 329.526V329.867C2224.15 330.892 2224.49 332.258 2225.51 332.941L2111.04 479.776C2110.7 479.435 2110.36 479.435 2110.02 479.435ZM2232.69 329.867C2232.69 329.526 2232.69 328.843 2232.35 328.501L2257.63 316.891L2308.2 481.483L2230.64 333.282C2231.66 332.599 2232.69 331.233 2232.69 329.867ZM2310.25 482.508C2309.91 482.508 2309.91 482.508 2309.57 482.508L2258.66 316.208L2374.84 263.279C2375.52 264.645 2376.89 265.328 2378.59 265.328C2379.28 265.328 2379.96 264.987 2380.64 264.645L2461.29 377.333C2460.26 378.016 2459.92 379.382 2459.92 380.406C2459.92 381.089 2460.26 381.772 2460.6 382.455L2314.01 483.532C2312.65 483.191 2311.62 482.508 2310.25 482.508ZM2775.65 380.406L2890.46 352.746C2891.15 354.454 2892.51 355.82 2894.56 355.82L2900.71 438.457C2899.35 438.799 2898.32 439.482 2897.64 440.506L2775.31 382.455C2775.31 382.113 2775.65 381.431 2775.65 381.089C2775.65 380.748 2775.65 380.406 2775.65 380.406ZM2903.45 438.799L2941.72 361.966L3077.72 390.992V391.333C3077.72 391.675 3077.72 391.675 3077.72 392.016L2904.82 440.848C2904.82 439.823 2904.13 439.482 2903.45 438.799ZM3085.58 388.602L3146.4 334.99L3182.28 397.821C3181.25 398.504 3180.91 399.529 3180.57 400.553L3086.6 390.992C3086.26 390.309 3085.92 389.626 3085.58 388.602ZM3202.44 288.549L3305.63 265.328L3323.06 278.987L3306.66 293.329L3202.44 288.549ZM3324.08 279.67L3341.51 293.329C3341.17 293.671 3341.17 294.354 3340.83 295.037L3308.37 293.671L3324.08 279.67ZM3345.95 291.622L3351.42 258.84H3351.76C3354.15 258.84 3356.2 256.791 3356.2 254.401V254.059L3376.71 249.279L3346.98 291.622C3346.64 291.622 3346.29 291.622 3345.95 291.622ZM3355.86 253.035C3355.86 252.693 3355.52 252.352 3355.18 251.669L3420.44 186.447L3377.39 247.913L3355.86 253.035ZM3445.05 165.275L3503.14 149.226L3554.05 204.204C3553.71 204.545 3553.37 204.887 3553.37 205.228L3445.05 166.983C3445.05 166.641 3445.39 166.3 3445.39 165.958C3445.05 165.617 3445.05 165.617 3445.05 165.275ZM3638.79 112.346L3661.34 107.565L3563.62 200.106L3638.79 112.346ZM3639.47 111.322L3643.92 106.2L3679.79 89.4671C3679.79 89.8086 3680.14 89.8086 3680.14 89.8086L3662.37 106.541L3639.47 111.322ZM3680.48 90.833C3681.16 91.516 3682.19 91.8575 3683.21 91.8575C3685.26 91.8575 3686.97 90.4916 3687.31 88.4427L3720.12 93.9063V94.2478C3720.12 94.5893 3720.12 94.5893 3720.12 94.5893L3664.08 106.2L3680.48 90.833ZM3425.23 182.008L3437.19 170.056L3380.12 247.571L3379.44 247.913L3425.23 182.008ZM3720.12 93.2234L3687.31 87.7597V87.4183C3687.31 85.0279 3685.26 82.9791 3682.87 82.9791H3682.53L3680.14 67.2711C3681.16 66.9296 3682.19 66.5881 3682.53 65.9052L3720.12 91.8575C3720.46 92.5404 3720.12 92.8819 3720.12 93.2234ZM3676.38 66.2467L3649.73 91.1745L3480.92 113.029L3675.69 65.2222C3676.04 65.5637 3676.38 65.9052 3676.38 66.2467ZM3468.28 117.81L3433.77 158.446L3358.6 80.2472C3358.94 79.9058 3359.28 79.5643 3359.28 79.2228L3467.26 114.054C3467.26 114.395 3466.91 114.736 3466.91 115.078C3467.26 115.761 3467.6 116.785 3468.28 117.81ZM3351.76 79.5643L3244.13 166.3L3208.59 137.615C3208.93 136.933 3209.27 136.25 3209.27 135.225C3209.27 134.884 3209.27 134.542 3208.93 134.201L3351.76 79.5643C3351.76 79.2228 3351.76 79.2228 3351.76 79.5643ZM3082.84 128.396C3082.84 126.005 3080.79 124.298 3078.74 124.298C3077.03 124.298 3075.67 125.322 3074.98 126.688L3035.35 111.663H3035C3035 111.663 3035 111.663 3035 111.322L3195.6 134.542L3082.84 128.396ZM3029.19 114.054L3018.6 150.592L2928.73 184.398C2928.73 184.398 2928.73 184.398 2928.73 184.056L3027.83 112.688C3028.17 113.371 3028.51 113.712 3029.19 114.054ZM2920.88 186.788L2805.04 209.667L2770.87 162.202C2771.55 161.519 2771.89 161.177 2771.89 160.153L2920.53 186.105V186.447C2920.88 186.447 2920.88 186.788 2920.88 186.788ZM2763.69 160.153L2691.59 186.447L2574.05 149.567L2763.69 159.47C2763.69 159.812 2763.69 159.812 2763.69 160.153ZM2565.51 148.543L2416.87 155.031C2416.52 152.982 2414.82 151.616 2412.76 151.275L2403.2 9.56137C2403.88 9.56137 2404.91 9.2199 2405.25 8.53694L2566.19 146.494C2565.85 147.177 2565.51 147.86 2565.51 148.543ZM2399.78 8.87841L2308.2 165.275C2307.52 164.934 2307.18 164.934 2306.5 164.934C2305.47 164.934 2304.1 165.275 2303.42 166.3L2191.68 76.1495C2192.03 75.4665 2192.37 74.7836 2192.37 73.7592C2192.37 73.4177 2192.37 73.4177 2192.37 73.0762L2398.41 7.51251C2398.76 7.85399 2399.44 8.53694 2399.78 8.87841ZM2186.9 77.8569L2150 271.133H2149.65C2148.29 271.133 2147.26 271.816 2146.24 272.841L2026.98 192.252C2027.33 191.569 2027.67 190.886 2027.67 190.203C2027.67 189.52 2027.33 188.837 2026.98 188.154L2184.85 76.8325C2185.53 77.1739 2186.22 77.5154 2186.9 77.8569ZM2023.22 193.959C2023.57 193.959 2023.57 193.959 2023.22 193.959L2036.89 278.987C2034.84 279.329 2033.48 281.036 2033.48 283.085C2033.48 283.768 2033.48 284.109 2033.82 284.451L1900.21 351.38C1900.21 351.039 1899.87 350.697 1899.53 350.697L2020.83 193.618C2021.86 193.959 2022.54 193.959 2023.22 193.959ZM1805.22 512.899L1937.46 454.848C1938.14 456.214 1939.51 456.897 1941.22 456.897C1941.22 456.897 1941.22 456.897 1941.56 456.897L1960.69 578.122C1959.67 578.463 1958.64 579.146 1957.96 580.17L1805.22 515.29C1805.22 514.948 1805.56 514.607 1805.56 513.924C1805.56 513.582 1805.56 513.241 1805.22 512.899ZM1961.72 578.122L1942.24 456.897C1943.61 456.556 1944.98 455.531 1945.32 454.165L2104.55 483.532V483.874C2104.55 484.557 2104.89 485.24 2105.23 485.923L1965.48 580.17C1964.45 578.805 1963.09 578.122 1961.72 578.122ZM2111.73 480.459L2226.2 333.624C2226.88 333.965 2227.56 334.307 2228.25 334.307C2228.93 334.307 2229.27 334.307 2229.61 333.965L2307.52 483.532C2306.5 484.215 2305.81 485.24 2305.81 486.264L2112.75 482.849C2112.75 481.825 2112.41 481.142 2111.73 480.459ZM2314.01 484.898L2460.6 383.821C2461.29 384.845 2462.65 385.187 2463.68 385.187L2493.06 567.877C2492.04 568.219 2491.36 568.902 2490.67 569.585L2314.01 487.63C2314.01 487.289 2314.35 486.947 2314.35 486.264C2314.7 485.923 2314.35 485.24 2314.01 484.898ZM2494.77 567.877L2465.05 385.187C2465.39 385.187 2465.73 384.845 2466.07 384.845L2570.29 524.851C2569.61 525.534 2568.92 526.558 2568.92 527.924C2568.92 528.607 2569.26 529.29 2569.26 529.632L2498.19 569.926C2497.51 568.56 2496.14 567.877 2494.77 567.877ZM2575.76 524.51L2656.74 391.675C2657.42 392.016 2657.76 392.016 2658.45 392.016C2658.79 392.016 2659.47 392.016 2659.82 391.675L2741.48 565.145C2740.8 565.487 2740.12 566.511 2739.77 567.194L2577.12 528.266C2577.12 527.924 2577.12 527.924 2577.12 527.583C2577.47 526.217 2576.78 525.193 2575.76 524.51ZM2746.95 565.487C2746.27 565.145 2745.92 564.804 2744.9 564.462L2770.87 385.187C2772.58 385.187 2773.6 384.162 2774.63 383.138L2896.96 440.848C2896.96 441.189 2896.61 441.872 2896.61 442.214C2896.61 442.896 2896.96 443.921 2897.3 444.262L2746.95 565.487ZM2905.16 441.872L3078.06 393.041C3078.74 394.407 3080.11 395.431 3081.48 395.431L3078.4 496.167C3076.69 496.167 3075.32 497.191 3074.64 498.557L2905.16 443.238C2905.16 442.896 2905.16 442.555 2905.16 442.555C2905.5 442.214 2905.16 441.872 2905.16 441.872ZM3081.48 497.191C3080.79 496.508 3080.11 496.167 3079.08 496.167L3082.16 395.431C3084.21 395.431 3085.58 393.724 3085.92 392.016L3179.89 401.578C3179.89 402.602 3180.23 403.285 3180.91 404.309L3081.48 497.191ZM3307.68 294.354L3340.83 296.061C3340.83 296.744 3341.17 297.086 3341.17 297.768L3190.48 397.138L3307.68 294.354ZM3378.41 248.937H3379.1L3368.16 263.621L3378.41 248.937ZM3438.55 169.714C3439.24 170.056 3439.92 170.397 3440.6 170.397C3442.31 170.397 3443.68 169.373 3444.36 168.007L3552.68 206.252C3552.68 206.594 3552.34 206.935 3552.34 207.277V207.618L3381.15 247.571L3438.55 169.714ZM3663.05 107.224L3720.46 95.2723C3720.46 95.6137 3720.46 95.6137 3720.8 95.9552L3561.91 202.838L3663.05 107.224Z" fill="#0ABAB5"></path><path opacity="0.5" d="M4.78393 531.192C6.15073 531.192 7.17581 530.509 8.20092 529.484L45.7881 555.436C45.4464 556.119 45.1045 556.802 45.1045 557.485C45.1045 559.876 47.1548 561.925 49.5467 561.925C51.9387 561.925 53.989 559.876 53.989 557.485L53.989 557.144L254.226 507.971C254.91 509.678 256.276 510.703 258.326 510.703C260.035 510.703 261.744 509.678 262.427 507.971L370.405 542.802C370.405 543.143 370.063 543.485 370.063 543.826C370.063 546.217 372.113 548.265 374.505 548.265C376.897 548.265 378.947 546.217 378.947 543.826C378.947 543.485 378.947 543.143 378.606 542.802L520.07 487.824C520.753 489.19 522.12 490.214 523.829 490.214C525.879 490.214 527.587 488.848 527.929 487.141L693.996 511.044C693.996 513.435 696.046 515.484 698.438 515.484C700.83 515.484 702.88 513.435 702.88 511.044C702.88 510.361 702.539 509.678 702.197 508.995L801.291 437.627C801.974 438.651 803.341 438.993 804.366 438.993C806.416 438.993 807.783 437.627 808.466 435.919L957.107 461.872L957.107 462.213C957.107 464.603 959.157 466.652 961.549 466.652C963.599 466.652 965.307 464.945 965.649 463.237L1155.29 473.14C1155.29 475.531 1157.34 477.238 1159.39 477.238C1160.42 477.238 1161.44 476.897 1162.13 476.214L1323.07 614.171C1322.73 614.853 1322.39 615.536 1322.39 616.561C1322.39 618.951 1324.44 621 1326.83 621C1329.22 621 1331.27 618.951 1331.27 616.561C1331.27 616.219 1331.27 616.219 1331.27 615.878L1537.32 550.314C1538 551.68 1539.37 552.705 1541.07 552.705C1543.47 552.705 1545.52 550.656 1545.52 548.265C1545.52 547.582 1545.18 546.899 1544.83 546.216L1702.7 434.895C1703.38 435.919 1704.75 436.261 1705.78 436.261C1708.17 436.261 1710.22 434.212 1710.22 431.821C1710.22 430.797 1709.88 429.431 1708.85 428.748L1830.15 271.668C1830.84 272.01 1831.52 272.351 1832.2 272.351C1834.6 272.351 1836.65 270.303 1836.65 267.912C1836.65 267.571 1836.65 267.229 1836.31 266.888L2019.8 191.421C2020.48 192.787 2021.85 193.47 2023.56 193.47C2025.95 193.47 2028 191.421 2028 189.031C2028 186.64 2025.95 184.592 2023.56 184.592C2022.53 184.592 2021.51 184.933 2020.48 185.958L1931.3 109.467C1931.64 108.784 1931.98 108.101 1931.98 107.076C1931.98 104.686 1929.93 102.637 1927.54 102.637C1925.83 102.637 1924.46 103.661 1923.78 104.686L1771.04 39.8051C1771.04 39.4637 1771.38 39.1222 1771.38 38.4392C1771.38 36.0489 1769.33 34 1766.94 34C1764.55 34 1762.5 36.0489 1762.5 38.4392C1762.5 39.1222 1762.84 39.8051 1763.18 40.4881L1623.43 134.736C1622.74 133.712 1621.37 133.029 1620.35 133.029C1618.3 133.029 1616.59 134.736 1616.25 136.785L1423.19 133.37C1422.85 131.321 1421.14 129.614 1419.09 129.614C1417.72 129.614 1416.35 130.297 1415.67 131.663L1239.01 49.708C1239.01 49.3665 1239.35 49.0251 1239.35 48.3421C1239.35 45.9518 1237.3 43.9029 1234.91 43.9029C1232.52 43.9029 1230.47 45.9518 1230.47 48.3421C1230.47 49.0251 1230.47 49.708 1230.81 50.0495L1159.74 90.3439C1159.05 89.3195 1157.69 88.295 1156.32 88.295C1154.61 88.295 1152.9 89.3194 1152.22 91.0268L989.568 52.0984C989.568 51.7569 989.568 51.7569 989.568 51.4154C989.568 49.0251 987.518 46.9762 985.126 46.9762C982.734 46.9762 980.684 49.0251 980.684 51.4154C980.684 52.0984 981.026 53.1228 981.367 53.4643L830.677 174.347C829.994 173.664 828.968 172.981 827.602 172.981C825.893 172.981 824.526 174.006 823.843 175.372L654.359 120.052C654.359 119.711 654.359 119.37 654.359 119.37C654.359 116.979 652.309 114.93 649.917 114.93C647.525 114.93 645.475 116.979 645.475 119.37C645.475 120.394 645.816 121.077 646.5 122.101L546.723 215.325C546.039 214.642 545.014 214.3 543.989 214.3C541.597 214.3 539.547 216.349 539.547 218.74C539.547 219.422 539.889 220.105 539.889 220.788L386.465 321.866C385.781 320.841 384.414 320.158 383.389 320.158C380.997 320.158 378.947 322.207 378.947 324.598C378.947 325.963 379.631 326.988 380.314 327.671L347.852 371.721L175.976 412.699C175.293 410.991 173.926 409.967 171.876 409.967C169.484 409.967 167.434 412.016 167.434 414.406C167.434 415.089 167.775 415.772 167.775 416.455L7.5172 524.362C6.8338 523.338 5.46736 522.996 4.44225 522.996C2.05034 522.996 -8.38867e-06 525.045 -8.1797e-06 527.435C0.341694 529.143 2.39202 531.192 4.78393 531.192ZM2019.12 190.055L1835.62 265.522C1835.28 265.18 1834.94 264.497 1834.6 264.156L1925.83 110.832C1926.51 111.174 1926.86 111.174 1927.54 111.174C1928.56 111.174 1929.59 110.832 1930.61 109.808L2019.8 186.299C2019.46 186.982 2019.12 187.665 2019.12 188.689C2019.12 189.372 2019.12 189.714 2019.12 190.055ZM541.597 222.837C541.939 223.179 542.622 223.52 543.306 223.862L529.296 328.354C527.929 329.037 526.904 330.061 526.562 331.769L423.027 326.988L541.597 222.837ZM985.126 56.5376C985.468 56.5376 986.151 56.5376 986.493 56.1961L1068.16 229.667C1067.13 230.35 1066.11 231.716 1066.11 233.082L961.89 239.57C961.549 237.862 960.524 236.496 958.815 236.155L985.126 56.5376ZM1155.64 97.5149C1156.32 97.5149 1157 97.1734 1157.69 96.8319L1261.9 236.838C1261.22 237.521 1260.88 238.204 1260.54 239.228L1074.31 232.74C1074.31 231.374 1073.63 230.35 1072.6 229.667L1153.59 96.8319C1154.61 97.5149 1154.95 97.5149 1155.64 97.5149ZM1925.15 110.149L1833.91 263.473C1833.23 263.132 1832.89 263.131 1832.2 263.131C1831.86 263.131 1831.18 263.132 1830.84 263.473L1789.83 172.298C1791.2 171.615 1792.23 170.25 1792.23 168.542C1792.23 168.201 1792.23 167.518 1791.88 167.176L1924.12 109.125C1924.12 109.467 1924.81 109.808 1925.15 110.149ZM1702.36 428.407L1583.1 347.818C1583.45 347.135 1583.79 346.452 1583.79 345.769L1686.98 338.598C1687.32 340.647 1689.03 342.354 1691.08 342.354L1691.42 342.354L1704.75 427.041C1703.72 427.382 1703.04 427.724 1702.36 428.407ZM1326.83 611.097L1317.26 469.384C1319.31 469.043 1320.68 467.335 1320.68 465.286C1320.68 465.286 1320.68 465.286 1320.68 464.945L1418.4 452.31C1418.75 453.335 1419.09 454.018 1420.11 454.7L1328.54 611.097C1327.85 611.439 1327.17 611.097 1326.83 611.097ZM1163.49 471.433C1163.49 471.091 1163.49 470.75 1163.15 470.408L1228.42 432.163L1312.13 464.262C1312.13 464.603 1312.13 464.603 1312.13 464.945L1163.49 471.433ZM376.555 540.753C375.872 540.07 375.188 539.728 374.163 539.728L382.023 371.38L483.85 454.359L376.555 540.753ZM254.226 503.532C253.543 504.215 253.201 504.898 253.201 505.922L107.978 505.922C107.978 505.922 107.978 505.922 107.978 505.581L225.865 472.799L254.226 503.532ZM107.636 504.556C107.294 503.873 106.953 503.532 106.611 502.849L169.826 417.48C170.509 417.821 171.193 418.162 171.876 418.162C172.901 418.162 173.584 417.821 174.609 417.138L225.182 471.774L107.636 504.556ZM105.927 502.507C105.244 502.166 104.561 501.824 103.877 501.824C101.486 501.824 99.4352 503.873 99.4352 506.264C99.4352 506.605 99.4352 506.605 99.4352 506.605L91.9178 508.313L164.359 423.626L105.927 502.507ZM99.7767 507.288L99.7767 507.63L87.4756 513.435L91.2342 508.996L99.7767 507.288ZM286.346 458.798C287.03 459.14 287.713 459.481 288.396 459.481C289.08 459.481 289.421 459.481 290.105 459.14L264.136 496.019L286.346 458.798ZM292.497 455.042C292.497 454.018 292.155 452.993 291.472 452.31L301.381 442.407L292.497 455.042ZM286.004 458.457L259.693 502.507C259.01 502.166 258.327 501.824 257.643 501.824C256.618 501.824 255.935 502.166 254.909 502.849L226.89 472.457L284.296 456.408C284.637 457.432 285.321 458.115 286.004 458.457ZM49.8884 531.875L84.4001 515.484L72.4405 529.143L49.8884 532.216C49.8884 532.216 49.8884 532.216 49.8884 531.875ZM49.8884 533.582L71.0741 530.85L51.2552 554.071C50.5718 553.729 49.8886 553.388 48.8635 553.388L48.5215 553.388L46.1298 537.68C48.5217 537.338 49.8884 535.631 49.8884 533.582ZM72.7826 530.509L77.9082 529.826L53.989 552.022L72.7826 530.509ZM73.8075 529.484L86.4507 514.801L100.119 508.313C100.119 508.654 100.46 508.654 100.46 508.996L79.2747 528.801L73.8075 529.484ZM100.802 509.337C101.485 510.02 102.511 510.361 103.536 510.361C105.586 510.361 107.636 508.654 107.636 506.605L249.442 506.605L79.9582 528.46L100.802 509.337ZM291.472 458.798L294.547 462.213L264.136 497.727L291.472 458.798ZM291.813 458.115L305.823 437.968L369.38 374.453L294.889 461.53L291.813 458.115ZM644.108 233.082C644.791 233.423 645.475 233.765 646.158 234.106L633.857 334.5L609.937 333.817L583.285 286.694L644.108 233.082ZM1066.11 233.764C1066.11 234.789 1066.79 235.472 1067.48 236.155L1025.79 295.572L961.207 241.96C961.549 241.277 961.89 240.594 961.89 239.911L1066.11 233.764ZM1260.88 240.253C1260.88 240.935 1261.22 241.277 1261.22 241.96L1144.7 322.89L1073.29 236.155C1073.97 235.472 1074.31 234.789 1074.31 233.764L1260.88 240.253ZM1686.98 337.574L1686.98 337.915L1583.79 345.086C1583.45 343.379 1582.42 342.354 1581.05 341.671L1586.86 312.646L1686.98 337.574ZM1159.05 467.677C1158.71 467.677 1158.37 467.677 1158.37 467.677L1140.26 400.747C1141.28 400.406 1141.97 399.723 1142.65 398.698L1184.34 414.748L1161.1 468.018C1160.08 468.018 1159.74 467.677 1159.05 467.677ZM1025.11 296.596L960.524 388.454L958.132 244.35C959.157 244.35 959.84 244.009 960.524 243.326L1025.11 296.596ZM1192.88 385.039L1157.69 374.112L1171.7 356.696L1193.91 383.673C1193.22 384.356 1192.88 384.698 1192.88 385.039ZM1192.54 386.063C1192.54 386.405 1192.2 386.746 1192.2 387.088L1142.31 395.966C1141.97 395.283 1141.97 394.6 1141.28 394.259L1156.66 375.136L1192.54 386.063ZM1140.94 393.576C1140.26 393.235 1139.58 392.893 1138.89 392.893C1138.55 392.893 1138.21 392.893 1137.87 393.235L1126.25 365.575L1156.32 374.795L1140.94 393.576ZM1101.3 353.965L1116 343.72L1124.2 363.867L1101.65 357.038C1101.65 356.696 1101.99 356.355 1101.99 356.013C1101.99 355.33 1101.65 354.648 1101.3 353.965ZM1100.96 353.282C1100.28 352.257 1098.91 351.916 1097.89 351.916C1097.55 351.916 1097.55 351.916 1097.2 351.916L1071.92 237.862L1115.66 343.037L1100.96 353.282ZM1101.65 357.721L1124.88 364.892L1136.84 393.235C1136.5 393.235 1136.16 393.576 1136.16 393.576L1101.3 358.745C1101.3 358.404 1101.65 358.062 1101.65 357.721ZM1201.08 386.405L1346.65 360.453L1346.65 360.794L1247.55 419.187L1200.74 388.454C1200.74 388.112 1201.08 387.429 1201.08 386.405C1201.08 386.746 1201.08 386.746 1201.08 386.405ZM1196.64 382.649C1195.96 382.649 1194.93 382.99 1194.25 383.332L1172.04 356.355L1262.59 243.667L1197.66 382.649C1197.66 382.649 1197.32 382.649 1196.64 382.649ZM1261.9 242.984L1171.35 355.33L1145.38 323.573L1261.9 242.984ZM1171.01 356.355L1156.66 374.112L1125.57 364.55L1116.68 343.72L1144.36 324.597L1171.01 356.355ZM1116.34 342.354L1072.26 236.838C1072.26 236.838 1072.26 236.838 1072.6 236.838L1144.02 323.573L1116.34 342.354ZM1070.55 237.521C1070.89 237.521 1070.89 237.521 1071.24 237.521L1096.86 352.257C1096.18 352.599 1095.5 352.599 1095.15 353.282L1026.81 296.596L1068.84 237.179C1068.84 237.179 1069.53 237.521 1070.55 237.521ZM1094.13 353.623C1093.79 354.306 1093.45 354.989 1093.45 356.013C1093.45 356.355 1093.45 356.696 1093.79 357.038L960.865 401.771L960.524 390.503L1025.79 297.621L1094.13 353.623ZM959.499 389.82L950.614 402.113C950.273 401.771 949.931 401.771 949.247 401.771L957.107 254.595L959.499 389.82ZM953.006 405.528L959.84 403.137L959.84 405.186L953.006 405.528ZM952.664 404.503C952.323 403.82 951.981 403.479 951.639 403.137L959.499 391.869L959.499 402.113L952.664 404.503ZM937.971 393.917L833.069 282.254L834.094 276.108L838.536 274.742L937.971 393.917ZM646.842 487.141L591.144 412.699L627.023 373.087C627.706 373.77 628.731 374.112 629.415 374.112L629.756 374.112L648.892 488.507L646.842 487.141ZM520.07 430.114C520.07 429.773 520.412 429.431 520.412 428.748C520.412 428.065 520.412 427.724 520.07 427.041L526.221 423.968L525.879 432.504L520.07 430.114ZM532.713 335.866L577.818 396.308L527.246 422.602L531.004 336.208C531.688 336.549 532.371 336.208 532.713 335.866ZM626.681 372.404L590.802 412.016L579.184 396.649L625.998 372.063C626.339 372.063 626.339 372.404 626.681 372.404ZM625.656 368.648C625.656 368.99 625.314 369.331 625.314 369.673C625.314 370.356 625.314 370.697 625.656 371.38L578.501 395.966L533.396 335.525C533.738 335.183 534.08 334.842 534.421 334.159L625.656 368.648ZM526.221 423.285L519.387 426.699C518.703 425.675 518.02 425.333 516.995 424.992L518.02 416.797L529.638 339.623L526.221 423.285ZM527.246 423.626L578.501 396.991L590.119 412.699L558.341 447.529L526.562 433.187L527.246 423.626ZM590.461 413.382L644.791 486.458L559.024 447.871L590.461 413.382ZM700.83 337.232L743.885 338.257L743.885 338.598L634.54 367.965L700.83 337.232ZM824.185 279.864L777.372 315.378L819.743 281.913L824.185 279.864ZM831.019 280.205C831.702 279.522 832.044 278.498 832.044 277.474C832.044 277.132 832.044 276.791 832.044 276.791L833.069 276.449L832.044 281.23L831.019 280.205ZM833.411 275.766L832.044 276.108C831.702 275.425 831.36 275.083 831.019 274.742L832.385 273.376C832.727 273.717 833.411 274.059 833.752 274.059L833.411 275.766ZM831.702 272.693L830.677 274.4C830.677 274.4 830.335 274.059 829.993 274.059L831.702 272.693ZM817.009 283.279L751.402 335.183C751.06 334.842 750.719 334.842 750.719 334.5L764.045 308.207L817.009 283.279ZM749.694 333.817C749.352 333.817 748.669 333.476 748.327 333.476C747.302 333.476 746.618 333.817 745.935 334.5L733.975 321.866L762.337 308.548L749.694 333.817ZM745.252 335.183C744.568 335.866 744.568 336.549 744.226 337.232L703.222 336.208L732.95 322.207L745.252 335.183ZM752.427 338.598C752.427 338.257 752.427 337.915 752.427 337.915C752.427 337.232 752.086 336.208 751.744 335.525L824.526 280.205C825.21 280.888 825.893 281.23 826.577 281.571L814.617 360.111L752.427 338.598ZM834.094 275.425L834.436 274.059L834.777 274.059C835.802 274.059 836.486 273.717 837.169 273.376L838.194 274.4L834.094 275.425ZM831.36 272.01L829.31 273.717C828.968 273.717 828.627 273.376 828.285 273.376L828.285 268.937L830.677 269.278L830.677 269.62C830.677 270.644 831.019 271.327 831.36 272.01ZM823.843 278.157L821.109 280.547L764.728 306.841L784.547 266.888L823.843 277.132C823.843 277.474 823.843 277.474 823.843 277.815C823.501 277.815 823.501 277.815 823.843 278.157ZM698.438 337.232L633.173 367.624C632.49 366.599 631.806 365.916 630.44 365.916L634.198 335.866L698.438 337.232ZM629.756 365.575C629.073 365.575 628.39 365.575 628.048 365.916L610.279 334.842L633.173 335.525L629.756 365.575ZM627.364 366.258C626.681 366.599 626.339 367.282 625.998 367.965L534.763 333.476L534.763 333.134L609.254 335.183L627.364 366.258ZM519.728 431.139L525.879 433.87L523.829 481.336L516.995 432.846C518.02 432.846 519.045 432.163 519.728 431.139ZM804.024 430.456C803.341 430.456 802.657 430.456 802.316 430.797L750.719 341.33C751.402 340.988 751.744 340.306 752.086 339.623L814.617 360.794L804.024 430.456ZM953.006 406.894L953.006 406.552L959.84 406.211L959.84 408.943L953.006 406.894ZM1142.65 398.015C1142.65 397.674 1142.99 397.332 1142.99 396.991C1142.99 396.991 1142.99 396.991 1142.99 396.649L1192.88 387.771C1193.22 388.795 1193.91 389.82 1194.93 390.161L1184.68 413.723L1142.65 398.015ZM1248.58 420.211L1347.33 362.16C1347.67 362.843 1348.36 363.184 1349.04 363.526L1317.6 461.189C1317.26 461.189 1316.92 460.847 1316.58 460.847C1315.21 460.847 1314.18 461.53 1313.16 462.554L1248.58 420.211ZM1317.94 461.189L1349.38 363.526C1349.72 363.526 1350.06 363.867 1350.41 363.867C1351.43 363.867 1352.11 363.526 1352.8 363.184L1390.73 411.674L1319.65 462.554C1318.97 461.871 1318.63 461.53 1317.94 461.189ZM1422.16 447.529C1421.14 447.529 1420.45 447.871 1419.77 448.212L1391.75 412.016L1467.61 358.062L1423.87 447.871C1423.19 447.529 1422.85 447.529 1422.16 447.529ZM1469.32 356.696L1480.59 348.501L1480.94 348.842L1427.97 440.358L1469.32 356.696ZM1484.69 341.671C1484.35 341.671 1484.01 341.33 1483.67 341.33C1483.33 341.33 1483.33 341.33 1482.99 341.33L1480.59 333.476L1499.05 295.572L1484.69 341.671ZM1481.96 342.013C1480.59 342.696 1479.57 344.062 1479.57 345.769L1474.44 346.452L1479.91 335.183L1481.96 342.013ZM1479.57 346.794C1479.57 347.135 1479.91 347.476 1479.91 347.818L1470.34 354.648L1474.1 347.135L1479.57 346.794ZM1575.59 343.72C1575.25 344.403 1574.9 344.745 1574.9 345.428L1494.6 345.428C1494.26 343.379 1492.55 341.33 1490.5 341.33C1489.14 341.33 1488.11 342.013 1487.09 343.037L1486.74 342.696C1486.4 342.354 1485.72 342.013 1485.04 341.671L1499.73 295.23C1500.07 295.23 1500.41 295.572 1500.75 295.572C1502.12 295.572 1503.15 294.889 1504.17 293.864L1575.59 343.72ZM1472.73 347.476L1468.63 356.013L1391.41 411.333L1353.48 362.843C1354.16 362.16 1354.85 360.794 1354.85 359.77L1472.73 347.476ZM957.107 244.35L948.564 402.113C947.881 402.113 947.197 402.454 946.514 402.796L839.903 274.742L954.031 241.618C954.373 242.984 955.398 244.009 957.107 244.35ZM763.02 307.182L732.95 321.183L649.917 232.74C650.258 232.399 650.6 232.057 650.6 231.374L783.18 266.546L763.02 307.182ZM646.842 234.106C647.867 234.106 648.55 233.764 649.575 233.082L732.267 321.524L700.83 336.208L634.54 334.5L646.842 234.106ZM529.638 336.208L523.829 374.795L528.954 336.208C529.296 336.208 529.638 336.208 529.638 336.208ZM511.869 427.724C511.869 428.065 511.527 428.748 511.527 429.09C511.527 429.773 511.869 430.797 512.211 431.48L491.367 448.212L448.996 399.381L511.869 427.724ZM524.512 481.677L526.562 434.553L556.974 448.895L526.221 482.36C525.879 482.019 525.195 481.677 524.512 481.677ZM646.158 488.165L647.183 489.531C646.841 489.873 646.841 490.214 646.5 490.556L558.341 448.895L646.158 488.165ZM654.359 490.556L653.676 490.214C653.334 489.873 652.992 489.531 652.65 489.19L672.127 458.457L682.378 479.628L654.359 490.556ZM652.309 488.848C651.625 488.507 651.283 488.507 650.6 488.507L650.259 488.507L631.123 373.77L631.465 373.77L672.127 457.774L652.309 488.848ZM632.148 373.429C632.832 373.087 633.173 372.404 633.857 371.721L709.031 399.723L672.811 456.749L632.148 373.429ZM633.857 370.697C633.857 370.356 634.198 370.014 634.198 369.673C634.198 369.331 634.198 369.331 634.198 368.99L744.568 339.281C744.91 339.964 745.252 340.647 745.935 340.988L709.373 398.698L633.857 370.697ZM746.618 341.671L728.166 405.869L710.056 399.04L746.618 341.671ZM747.643 342.013C747.985 342.013 747.985 342.013 748.327 342.013C749.01 342.013 749.694 342.013 750.035 341.671L801.632 431.139C800.949 431.48 800.607 432.163 800.265 432.504L729.192 405.869L747.643 342.013ZM815.642 361.477L817.009 362.16L808.466 408.26L815.642 361.477ZM815.642 360.453L827.602 281.913C827.602 281.913 827.602 281.913 827.943 281.913C828.627 281.913 829.31 281.571 829.994 281.23L831.702 283.62L817.351 360.794L815.642 360.453ZM832.385 284.986L910.293 392.552L818.376 361.136L832.385 284.986ZM833.069 283.962L945.489 403.479C945.147 403.82 945.147 404.162 944.805 404.503L912.002 393.235L833.069 283.962ZM952.664 407.918L959.84 410.308L960.524 457.774L949.931 410.308C950.956 409.967 951.981 408.942 952.664 407.918ZM960.865 409.284L960.865 405.869L1037.06 402.454L1008.7 424.309L960.865 409.284ZM960.865 405.186L960.865 402.796L1093.79 358.062L1094.13 358.404L1038.43 401.43L960.865 405.186ZM1094.47 359.087C1095.15 359.77 1096.18 360.453 1097.55 360.453C1098.23 360.453 1098.57 360.453 1099.25 360.111L1119.07 397.674L1040.14 401.43L1094.47 359.087ZM1099.94 359.77L1100.28 359.428L1135.13 394.259C1134.45 394.942 1134.11 395.966 1134.11 396.649L1119.76 397.332L1099.94 359.77ZM1134.45 397.674L1122.49 402.454L1120.44 398.357L1134.45 397.674ZM1134.79 399.04C1135.47 400.406 1136.84 401.43 1138.55 401.43C1138.89 401.43 1139.23 401.43 1139.23 401.43L1157.34 468.36C1157.34 468.36 1157.34 468.36 1157 468.36L1122.49 403.479L1134.79 399.04ZM1185.02 414.406L1195.27 390.844C1195.61 390.844 1196.3 391.186 1196.64 391.186C1198.01 391.186 1199.03 390.503 1200.06 389.478L1246.53 419.87L1228.08 430.797L1185.02 414.406ZM1247.55 420.553L1312.48 463.237L1229.44 431.48L1247.55 420.553ZM1319.99 463.237L1391.07 412.357L1419.09 448.554C1418.4 449.237 1417.72 450.603 1417.72 451.627C1417.72 451.627 1417.72 451.627 1417.72 451.969L1319.99 464.603C1320.34 463.92 1320.34 463.579 1319.99 463.237ZM1424.9 448.212L1481.96 349.867C1482.64 350.208 1483.33 350.55 1484.35 350.55C1484.69 350.55 1484.69 350.55 1485.04 350.55L1499.05 399.723L1425.92 448.895C1425.24 448.554 1424.9 448.554 1424.9 448.212ZM1485.72 350.208C1486.4 349.867 1486.74 349.525 1487.43 348.842C1488.11 349.525 1489.14 350.208 1490.5 350.208C1492.89 350.208 1494.6 348.501 1494.6 346.111L1574.9 346.111C1574.9 346.794 1575.25 347.135 1575.25 347.818L1499.39 399.04L1485.72 350.208ZM1579.69 341.671C1579.35 341.671 1579.35 341.671 1579.69 341.671C1577.98 341.671 1576.95 342.354 1576.27 343.379L1504.51 293.523C1504.51 293.182 1504.85 293.182 1504.85 292.84L1585.5 312.646L1579.69 341.671ZM1498.36 294.889L1479.91 332.451L1471.37 305.133L1496.65 293.523C1497.34 293.865 1498.02 294.547 1498.36 294.889ZM1479.23 333.817L1473.08 346.452L1354.51 358.745L1354.51 358.404L1470.68 305.475L1479.23 333.817ZM1346.3 359.428L1201.08 385.381C1200.74 384.356 1200.06 383.673 1199.37 382.99L1264.3 244.009C1264.64 244.009 1265.32 244.35 1265.66 244.35C1266.35 244.35 1267.03 244.009 1267.71 243.667L1348.36 356.355C1346.65 357.038 1346.3 358.062 1346.3 359.428ZM838.878 274.059L837.853 272.693C838.536 272.01 839.22 270.986 839.22 269.62C839.22 269.278 839.22 269.278 839.22 268.937L940.705 244.35L838.878 274.059ZM830.677 268.254L827.943 267.571L827.943 187.324L833.752 265.522C832.727 265.863 831.36 266.888 830.677 268.254ZM827.602 182.884L827.602 267.571L788.306 259.375L826.576 182.543C826.918 182.884 827.26 182.884 827.602 182.884ZM827.602 268.595L827.602 273.376C825.893 273.376 824.526 274.4 823.843 276.108L784.889 265.863L787.623 260.4L827.602 268.595ZM783.864 265.522L666.66 234.447L786.597 259.717L783.864 265.522ZM608.912 333.817L535.105 331.769C535.105 331.086 534.763 330.403 534.421 329.72L582.601 287.376L608.912 333.817ZM533.738 329.037C533.055 328.695 532.371 328.354 531.688 328.012L543.306 231.716L544.331 223.862C545.014 223.862 545.356 223.862 546.039 223.52L581.918 286.352L533.738 329.037ZM531.004 328.012C530.663 328.012 530.663 328.012 530.321 328.012L536.13 284.645L531.004 328.012ZM528.271 335.525L516.311 424.651C514.945 424.651 513.919 424.992 513.236 426.016L424.394 356.355L526.904 333.476C526.904 334.5 527.588 334.842 528.271 335.525ZM512.552 426.699L447.971 397.674L413.801 358.745L423.027 356.696L512.552 426.699ZM386.123 329.037L400.133 345.428L382.364 360.794L383.731 329.72C385.098 329.378 385.781 329.378 386.123 329.037ZM401.158 346.111L411.75 358.404L382.706 364.892L382.706 362.502L401.158 346.111ZM381.339 364.892L380.997 364.892C380.997 364.55 380.656 364.209 380.656 363.867L381.681 362.843L381.339 364.892ZM377.58 370.697C378.605 370.697 379.631 370.356 380.314 369.673L381.339 370.697L374.847 506.605L377.58 370.697ZM380.656 368.648L381.339 368.648L381.339 368.99L380.656 368.648ZM380.997 367.624C380.997 367.282 381.339 366.599 381.339 366.258L381.339 365.916L381.681 365.916L380.997 367.624ZM382.706 365.575L412.776 359.087L445.579 396.649L382.364 368.307L382.706 365.575ZM413.117 357.721L402.183 345.086L405.258 342.354L422.343 355.672L413.117 357.721ZM401.158 344.403L387.831 329.037L404.233 342.013L401.158 344.403ZM381.681 361.477L379.972 363.185C379.289 362.843 378.947 362.502 378.264 362.16L383.389 332.11L381.681 361.477ZM492.392 448.895L513.236 432.163C513.919 432.846 514.945 433.529 516.311 433.529L516.653 433.529L523.487 482.019C522.804 482.019 522.462 482.36 522.12 482.702L492.392 448.895ZM683.062 480.653L696.046 507.288C695.363 507.63 695.022 507.971 694.68 508.654L655.726 491.239L683.062 480.653ZM961.549 457.774L960.865 410.65L1007.68 425.333L964.282 459.14C963.599 458.115 962.574 457.774 961.549 457.774ZM1161.1 468.36L1184.68 415.089L1227.05 431.48L1162.47 469.384C1162.13 469.043 1161.79 468.701 1161.1 468.36ZM1620.35 141.907C1620.69 141.907 1621.03 141.907 1621.37 141.565L1689.03 334.159C1688.01 334.5 1687.32 335.525 1686.98 336.549L1586.52 311.963L1620.35 141.907C1620.01 141.907 1620.01 141.907 1620.35 141.907ZM374.847 369.673C375.53 370.014 375.872 370.356 376.555 370.356L373.138 539.387C372.455 539.387 371.43 539.728 370.746 540.411L295.572 462.213L374.847 369.673ZM382.364 370.014L382.364 369.331L446.604 398.357L490.684 448.895L484.875 453.676L382.364 370.014ZM491.367 449.578L519.387 481.677L485.558 454.359L491.367 449.578ZM528.271 485.775C528.271 484.751 527.929 483.726 527.246 483.043L557.999 449.237L646.158 491.239C646.158 491.58 646.158 491.922 646.158 491.922L528.271 485.775ZM654.359 491.58L685.795 505.581L654.359 493.629C654.359 493.287 654.701 492.946 654.701 492.263C654.701 492.263 654.359 491.922 654.359 491.58ZM698.097 506.605C697.413 506.605 697.072 506.605 696.73 506.947L683.745 480.653L709.031 471.091L698.78 506.947C698.78 506.605 698.438 506.605 698.097 506.605ZM683.403 479.628L672.811 457.774L709.373 400.064L727.825 406.894L709.714 469.726L683.403 479.628ZM728.85 407.235L799.924 433.87C799.924 434.212 799.582 434.553 799.582 434.895C799.582 435.236 799.582 435.578 799.924 435.919L710.74 469.726L728.85 407.235ZM805.049 430.456L817.692 362.16L910.977 393.917L922.937 410.65L807.441 433.187C807.783 432.163 806.416 430.797 805.049 430.456ZM913.369 394.6L944.805 405.186C944.805 405.528 944.805 405.869 944.805 405.869L944.805 406.211L924.987 409.967L913.369 394.6ZM944.805 407.577C945.489 409.284 946.856 410.65 948.906 410.65C949.247 410.65 949.248 410.65 949.589 410.65L959.84 457.774C959.498 457.774 959.157 458.115 959.157 458.115L925.328 411.333L944.805 407.577ZM964.624 459.823L1008.7 425.675L1035.7 434.212L964.624 459.823ZM1009.73 424.65L1038.77 402.113L1119.76 398.357L1121.81 402.454L1037.41 433.187L1009.73 424.65ZM1122.49 403.479L1157 468.701C1156.32 469.043 1155.64 469.726 1155.29 470.408L1039.12 433.87L1122.49 403.479ZM1426.26 449.92L1499.05 400.747L1539.37 543.485C1538.68 543.826 1538.34 544.168 1538 544.509L1426.26 454.359C1426.6 453.676 1426.95 452.993 1426.95 451.969C1426.6 450.944 1426.26 450.261 1426.26 449.92ZM1540.73 543.143C1540.39 543.143 1540.39 543.143 1540.05 543.143L1499.73 400.064L1575.93 348.501C1576.27 349.184 1576.95 349.525 1577.98 349.867L1540.73 543.143ZM1693.47 334.5L1785.73 172.298C1786.42 172.64 1786.76 172.64 1787.44 172.64C1787.78 172.64 1788.47 172.64 1788.81 172.298L1829.81 263.473C1828.45 264.156 1827.42 265.522 1827.42 267.229C1827.42 267.912 1827.42 268.254 1827.76 268.595L1694.16 335.525C1694.16 335.183 1693.82 334.842 1693.47 334.5ZM1785.05 171.615L1692.79 333.817C1692.11 333.476 1691.77 333.476 1691.08 333.476C1690.74 333.476 1690.4 333.476 1690.06 333.817L1622.06 141.565C1623.08 140.883 1623.77 140.2 1624.11 138.834L1783.34 168.201L1783.34 168.542C1783.34 169.908 1784.02 170.933 1785.05 171.615ZM1618.98 141.565L1585.5 311.28L1504.85 291.474L1504.85 291.133C1504.85 290.108 1504.51 288.742 1503.49 288.059L1617.96 141.224C1618.3 141.565 1618.64 141.565 1618.98 141.565ZM1496.31 291.133C1496.31 291.474 1496.31 292.157 1496.65 292.499L1471.37 304.109L1420.8 139.517L1498.36 287.718C1497.34 288.401 1496.31 289.767 1496.31 291.133ZM1418.75 138.492C1419.09 138.492 1419.09 138.492 1419.43 138.492L1470.34 304.792L1354.16 357.721C1353.48 356.355 1352.11 355.672 1350.41 355.672C1349.72 355.672 1349.04 356.013 1348.36 356.355L1267.71 243.667C1268.74 242.984 1269.08 241.618 1269.08 240.594C1269.08 239.911 1268.74 239.228 1268.4 238.545L1414.99 137.468C1416.35 137.809 1417.38 138.492 1418.75 138.492ZM953.348 240.594L838.536 268.254C837.853 266.546 836.486 265.18 834.436 265.18L828.285 182.543C829.652 182.201 830.677 181.518 831.36 180.494L953.69 238.545C953.69 238.887 953.348 239.57 953.348 239.911C953.348 240.253 953.348 240.594 953.348 240.594ZM825.551 182.201L787.281 259.034L651.284 230.008L651.284 229.667C651.284 229.325 651.284 229.325 651.284 228.984L824.185 180.152C824.185 181.177 824.868 181.518 825.551 182.201ZM643.424 232.399L582.601 286.011L546.723 223.179C547.748 222.496 548.09 221.471 548.431 220.447L642.399 230.008C642.741 230.691 643.083 231.374 643.424 232.399ZM526.562 332.452L423.368 355.672L405.942 342.013L422.343 327.671L526.562 332.452ZM404.916 341.33L387.49 327.671C387.831 327.329 387.831 326.646 388.173 325.963L420.635 327.329L404.916 341.33ZM383.048 329.378L377.58 362.16L377.239 362.16C374.847 362.16 372.797 364.209 372.797 366.599L372.797 366.941L352.295 371.721L382.023 329.378C382.364 329.378 382.706 329.378 383.048 329.378ZM373.138 367.965C373.138 368.307 373.48 368.648 373.822 369.331L308.557 434.553L351.611 373.087L373.138 367.965ZM283.954 455.725L225.865 471.774L174.951 416.797C175.293 416.455 175.635 416.114 175.635 415.772L283.954 454.018C283.954 454.359 283.612 454.701 283.612 455.042C283.954 455.384 283.954 455.384 283.954 455.725ZM90.2093 508.654L67.6571 513.435L165.384 420.894L90.2093 508.654ZM89.5256 509.678L85.0839 514.801L49.2051 531.533C49.2051 531.192 48.8635 531.192 48.8635 531.192L66.6318 514.459L89.5256 509.678ZM48.5215 530.167C47.8381 529.484 46.8132 529.143 45.7881 529.143C43.7379 529.143 42.0292 530.509 41.6875 532.557L8.88415 527.094L8.88415 526.752C8.88415 526.411 8.88415 526.411 8.88415 526.411L64.9233 514.801L48.5215 530.167ZM303.773 438.993L291.813 450.944L348.878 373.429L349.561 373.087L303.773 438.993ZM8.88415 527.777L41.6875 533.24L41.6875 533.582C41.6875 535.972 43.7378 538.021 46.1298 538.021L46.4713 538.021L48.8635 553.729C47.8384 554.071 46.813 554.412 46.4713 555.095L8.88415 529.143C8.54245 528.46 8.88415 528.118 8.88415 527.777ZM52.6222 554.754L79.2747 529.826L248.075 507.971L53.3054 555.778C52.9637 555.436 52.6222 555.095 52.6222 554.754ZM260.719 503.19L295.23 462.555L370.405 540.753C370.063 541.094 369.721 541.436 369.721 541.777L261.743 506.947C261.743 506.605 262.085 506.264 262.085 505.922C261.743 505.239 261.402 504.215 260.719 503.19ZM377.239 541.436L484.875 454.701L520.412 483.385C520.07 484.068 519.728 484.751 519.728 485.775C519.728 486.116 519.728 486.458 520.07 486.799L377.239 541.436C377.239 541.777 377.239 541.777 377.239 541.436ZM646.158 492.605C646.158 494.995 648.208 496.702 650.259 496.702C651.967 496.702 653.334 495.678 654.017 494.312L693.655 509.337L693.996 509.337C693.996 509.337 693.996 509.337 693.996 509.678L533.396 486.458L646.158 492.605ZM699.805 506.947L710.398 470.409L800.265 436.602C800.265 436.602 800.265 436.602 800.265 436.944L701.172 508.313C700.83 507.63 700.489 507.288 699.805 506.947ZM808.125 434.212L923.962 411.333L958.132 458.798C957.448 459.481 957.107 459.823 957.107 460.847L808.466 434.895L808.466 434.553C808.125 434.553 808.125 434.212 808.125 434.212ZM965.307 460.847L1037.41 434.553L1154.95 471.433L965.307 461.53C965.307 461.189 965.307 461.189 965.307 460.847ZM1163.49 472.457L1312.13 465.969C1312.48 468.018 1314.18 469.384 1316.24 469.725L1325.8 611.439C1325.12 611.439 1324.09 611.78 1323.75 612.463L1162.81 474.506C1163.15 473.823 1163.49 473.14 1163.49 472.457ZM1329.22 612.122L1420.8 455.725C1421.48 456.066 1421.82 456.066 1422.5 456.066C1423.53 456.066 1424.9 455.725 1425.58 454.7L1537.32 544.851C1536.97 545.533 1536.63 546.216 1536.63 547.241C1536.63 547.582 1536.63 547.582 1536.63 547.924L1330.59 613.488C1330.24 613.146 1329.56 612.463 1329.22 612.122ZM1542.1 543.143L1579 349.867L1579.35 349.867C1580.71 349.867 1581.74 349.184 1582.76 348.159L1702.02 428.748C1701.67 429.431 1701.33 430.114 1701.33 430.797C1701.33 431.48 1701.67 432.163 1702.02 432.846L1544.15 544.168C1543.47 543.826 1542.78 543.485 1542.1 543.143ZM1705.78 427.041C1705.43 427.041 1705.43 427.041 1705.78 427.041L1692.11 342.013C1694.16 341.671 1695.52 339.964 1695.52 337.915C1695.52 337.232 1695.52 336.891 1695.18 336.549L1828.79 269.62C1828.79 269.961 1829.13 270.303 1829.47 270.303L1708.17 427.382C1707.14 427.041 1706.46 427.041 1705.78 427.041ZM1923.78 108.101L1791.54 166.152C1790.86 164.786 1789.49 164.103 1787.78 164.103C1787.78 164.103 1787.78 164.103 1787.44 164.103L1768.31 42.8784C1769.33 42.537 1770.36 41.854 1771.04 40.8296L1923.78 105.71C1923.78 106.052 1923.44 106.393 1923.44 107.076C1923.44 107.418 1923.44 107.759 1923.78 108.101ZM1767.28 42.8784L1786.76 164.103C1785.39 164.444 1784.02 165.469 1783.68 166.835L1624.45 137.468L1624.45 137.126C1624.45 136.443 1624.11 135.76 1623.77 135.077L1763.52 40.8296C1764.55 42.1955 1765.91 42.8784 1767.28 42.8784ZM1617.27 140.541L1502.8 287.376C1502.12 287.035 1501.44 286.693 1500.75 286.693C1500.07 286.693 1499.73 286.693 1499.39 287.035L1421.48 137.468C1422.5 136.785 1423.19 135.76 1423.19 134.736L1616.25 138.151C1616.25 139.175 1616.59 139.858 1617.27 140.541ZM1414.99 136.102L1268.4 237.179C1267.71 236.155 1266.35 235.813 1265.32 235.813L1235.94 53.1228C1236.96 52.7813 1237.64 52.0984 1238.33 51.4154L1414.99 133.37C1414.99 133.711 1414.65 134.053 1414.65 134.736C1414.3 135.077 1414.65 135.76 1414.99 136.102ZM1234.23 53.1228L1263.95 235.813C1263.61 235.813 1263.27 236.155 1262.93 236.155L1158.71 96.149C1159.39 95.466 1160.08 94.4416 1160.08 93.0757C1160.08 92.3927 1159.74 91.7098 1159.74 91.3683L1230.81 51.074C1231.49 52.4399 1232.86 53.1228 1234.23 53.1228ZM1153.24 96.4904L1072.26 229.325C1071.58 228.984 1071.23 228.984 1070.55 228.984C1070.21 228.984 1069.53 228.984 1069.18 229.325L987.518 55.8546C988.201 55.5132 988.885 54.4887 989.227 53.8058L1151.88 92.7342C1151.88 93.0757 1151.88 93.0757 1151.88 93.4172C1151.53 94.7831 1152.22 95.8075 1153.24 96.4904ZM982.051 55.5132C982.734 55.8546 983.076 56.1961 984.101 56.5376L958.132 235.813C956.423 235.813 955.398 236.838 954.373 237.862L832.044 180.152C832.044 179.811 832.385 179.128 832.385 178.787C832.385 178.104 832.044 177.079 831.702 176.738L982.051 55.5132ZM823.843 179.128L650.942 227.959C650.258 226.593 648.892 225.569 647.525 225.569L650.6 124.833C652.309 124.833 653.675 123.809 654.359 122.443L823.843 177.762C823.843 178.104 823.843 178.445 823.843 178.445C823.501 178.787 823.843 179.128 823.843 179.128ZM647.525 123.809C648.208 124.492 648.892 124.833 649.917 124.833L646.842 225.569C644.791 225.569 643.424 227.276 643.083 228.984L549.115 219.422C549.115 218.398 548.773 217.715 548.09 216.691L647.525 123.809ZM421.318 326.646L388.173 324.939C388.173 324.256 387.831 323.915 387.831 323.232L538.522 223.862L421.318 326.646ZM350.586 372.063L349.903 372.063L360.837 357.379L350.586 372.063ZM290.446 451.286C289.763 450.944 289.08 450.603 288.396 450.603C286.688 450.603 285.321 451.627 284.638 452.993L176.318 414.748C176.318 414.406 176.66 414.065 176.66 413.723L176.66 413.382L347.852 373.429L290.446 451.286ZM65.9486 513.776L8.54247 525.728C8.54247 525.386 8.54262 525.386 8.20092 525.045L167.092 418.162L65.9486 513.776Z" fill="#0ABAB5"></path></svg> 