<?xml version="1.0" encoding="UTF-8"?> <svg xmlns="http://www.w3.org/2000/svg" width="183" height="32" viewBox="0 0 183 32" fill="none"><path d="M20.9168 0H11.1008C2.1312 0 0 2.1328 0 11.0832V20.9008C0 29.8672 2.1168 32 11.0832 32H20.9008C29.8672 32 32 29.8832 32 20.9168V11.1008C32 2.1312 29.8832 0 20.9168 0ZM25.8336 22.832H23.4992C22.616 22.832 22.3504 22.1168 20.7664 20.5328C19.384 19.2 18.8 19.0336 18.4496 19.0336C17.9664 19.0336 17.8336 19.1664 17.8336 19.8336V21.9328C17.8336 22.5008 17.6496 22.8336 16.1664 22.8336C14.727 22.7369 13.3311 22.2995 12.0938 21.5576C10.8564 20.8158 9.81307 19.7905 9.0496 18.5664C7.23707 16.3104 5.97591 13.6626 5.3664 10.8336C5.3664 10.4832 5.4992 10.1664 6.1664 10.1664H8.5008C9.1008 10.1664 9.3168 10.4336 9.5504 11.0496C10.6832 14.384 12.616 17.2832 13.4 17.2832C13.7008 17.2832 13.832 17.1504 13.832 16.4V12.9664C13.7328 11.4 12.9008 11.2672 12.9008 10.7008C12.9115 10.5514 12.9799 10.4121 13.0917 10.3123C13.2034 10.2125 13.3496 10.1602 13.4992 10.1664H17.1664C17.6672 10.1664 17.8336 10.416 17.8336 11.016V15.6496C17.8336 16.1504 18.0496 16.3168 18.2 16.3168C18.5008 16.3168 18.7328 16.1504 19.2832 15.6C20.4654 14.1583 21.4313 12.5521 22.1504 10.832C22.2239 10.6254 22.363 10.4485 22.5464 10.3283C22.7299 10.2081 22.9476 10.1513 23.1664 10.1664H25.5008C26.2 10.1664 26.3488 10.5168 26.2 11.016C25.3512 12.9175 24.3009 14.7225 23.0672 16.4C22.816 16.784 22.7152 16.984 23.0672 17.4336C23.2992 17.784 24.1168 18.4672 24.6672 19.1168C25.467 19.9146 26.1313 20.8377 26.6336 21.8496C26.8336 22.4992 26.4992 22.832 25.8336 22.832Z" fill="#4585ED"></path><path d="M42.2372 26.5V6.13636H49.6946C51.1397 6.13636 52.3362 6.375 53.2841 6.85227C54.232 7.32292 54.9413 7.96259 55.4119 8.77131C55.8826 9.57339 56.1179 10.4782 56.1179 11.4858C56.1179 12.3343 55.9621 13.0502 55.6506 13.6335C55.339 14.2102 54.9214 14.6742 54.3977 15.0256C53.8807 15.3703 53.3106 15.6222 52.6875 15.7812V15.9801C53.3636 16.0133 54.0232 16.232 54.6662 16.6364C55.3158 17.0341 55.8527 17.6009 56.277 18.3366C56.7012 19.0724 56.9134 19.9673 56.9134 21.0213C56.9134 22.062 56.6681 22.9967 56.1776 23.8253C55.6937 24.6473 54.9446 25.3002 53.9304 25.7841C52.9162 26.2614 51.6203 26.5 50.0426 26.5H42.2372ZM45.3097 23.8651H49.7443C51.2159 23.8651 52.2699 23.58 52.9062 23.0099C53.5426 22.4399 53.8608 21.7273 53.8608 20.8722C53.8608 20.2292 53.6984 19.6392 53.3736 19.1023C53.0488 18.5653 52.5848 18.1378 51.9815 17.8196C51.3849 17.5014 50.6757 17.3423 49.8537 17.3423H45.3097V23.8651ZM45.3097 14.946H49.4261C50.1155 14.946 50.7353 14.8134 51.2855 14.5483C51.8423 14.2831 52.2831 13.9119 52.608 13.4347C52.9394 12.9508 53.1051 12.3807 53.1051 11.7244C53.1051 10.8826 52.8101 10.1766 52.2202 9.60653C51.6302 9.03646 50.7254 8.75142 49.5057 8.75142H45.3097V14.946ZM60.3189 26.5V11.2273H63.2919V17.6307H64.7237L69.7649 11.2273H73.4439L67.5277 18.6548L73.5135 26.5H69.8246L65.2209 20.3949H63.2919V26.5H60.3189ZM81.6271 26.8082C80.1953 26.8082 78.9458 26.4801 77.8786 25.8239C76.8113 25.1676 75.9827 24.2495 75.3928 23.0696C74.8028 21.8897 74.5078 20.5109 74.5078 18.9332C74.5078 17.349 74.8028 15.9635 75.3928 14.777C75.9827 13.5904 76.8113 12.669 77.8786 12.0128C78.9458 11.3565 80.1953 11.0284 81.6271 11.0284C83.0589 11.0284 84.3085 11.3565 85.3757 12.0128C86.4429 12.669 87.2715 13.5904 87.8615 14.777C88.4515 15.9635 88.7464 17.349 88.7464 18.9332C88.7464 20.5109 88.4515 21.8897 87.8615 23.0696C87.2715 24.2495 86.4429 25.1676 85.3757 25.8239C84.3085 26.4801 83.0589 26.8082 81.6271 26.8082ZM81.6371 24.3125C82.5651 24.3125 83.334 24.0672 83.9439 23.5767C84.5537 23.0862 85.0045 22.4332 85.2962 21.6179C85.5945 20.8026 85.7436 19.9044 85.7436 18.9233C85.7436 17.9489 85.5945 17.054 85.2962 16.2386C85.0045 15.4167 84.5537 14.7571 83.9439 14.2599C83.334 13.7628 82.5651 13.5142 81.6371 13.5142C80.7024 13.5142 79.9268 13.7628 79.3104 14.2599C78.7005 14.7571 78.2464 15.4167 77.9482 16.2386C77.6565 17.054 77.5107 17.9489 77.5107 18.9233C77.5107 19.9044 77.6565 20.8026 77.9482 21.6179C78.2464 22.4332 78.7005 23.0862 79.3104 23.5767C79.9268 24.0672 80.7024 24.3125 81.6371 24.3125ZM102.416 17.581V20.1562H94.1431V17.581H102.416ZM94.9783 11.2273V26.5H92.065V11.2273H94.9783ZM104.494 11.2273V26.5H101.591V11.2273H104.494ZM106.577 13.7926V11.2273H119.463V13.7926H114.482V26.5H111.578V13.7926H106.577ZM126.342 26.8381C125.374 26.8381 124.499 26.6591 123.717 26.3011C122.934 25.9366 122.315 25.4096 121.857 24.7202C121.406 24.0308 121.181 23.1856 121.181 22.1847C121.181 21.3229 121.347 20.6136 121.678 20.0568C122.01 19.5 122.457 19.0592 123.021 18.7344C123.584 18.4096 124.214 18.1643 124.91 17.9986C125.606 17.8329 126.315 17.7069 127.038 17.6207C127.952 17.5147 128.695 17.4285 129.265 17.3622C129.835 17.2893 130.249 17.1733 130.508 17.0142C130.766 16.8551 130.896 16.5966 130.896 16.2386V16.169C130.896 15.3007 130.65 14.6278 130.16 14.1506C129.676 13.6733 128.953 13.4347 127.992 13.4347C126.991 13.4347 126.202 13.6567 125.626 14.1009C125.056 14.5384 124.661 15.0256 124.442 15.5625L121.648 14.9261C121.98 13.9981 122.464 13.2491 123.1 12.679C123.743 12.1023 124.482 11.6847 125.317 11.4261C126.153 11.161 127.031 11.0284 127.952 11.0284C128.562 11.0284 129.209 11.1013 129.891 11.2472C130.581 11.3864 131.224 11.6449 131.82 12.0227C132.424 12.4006 132.917 12.9408 133.302 13.6435C133.686 14.3395 133.879 15.2443 133.879 16.358V26.5H130.975V24.4119H130.856C130.664 24.7964 130.375 25.1742 129.991 25.5455C129.606 25.9167 129.112 26.2249 128.509 26.4702C127.906 26.7154 127.183 26.8381 126.342 26.8381ZM126.988 24.4517C127.81 24.4517 128.513 24.2893 129.096 23.9645C129.686 23.6397 130.133 23.2154 130.438 22.6918C130.75 22.1615 130.906 21.5947 130.906 20.9915V19.0227C130.799 19.1288 130.594 19.2282 130.289 19.321C129.991 19.4072 129.649 19.4834 129.265 19.5497C128.88 19.6094 128.506 19.6657 128.141 19.7188C127.777 19.7652 127.472 19.8049 127.227 19.8381C126.65 19.911 126.123 20.0336 125.646 20.206C125.175 20.3783 124.797 20.6269 124.512 20.9517C124.234 21.2699 124.094 21.6941 124.094 22.2244C124.094 22.9602 124.366 23.517 124.91 23.8949C125.453 24.2661 126.146 24.4517 126.988 24.4517ZM137.838 26.5V11.2273H140.811V17.6307H142.243L147.284 11.2273H150.963L145.047 18.6548L151.033 26.5H147.344L142.74 20.3949H140.811V26.5H137.838ZM152.487 13.7926V11.2273H165.374V13.7926H160.392V26.5H157.489V13.7926H152.487ZM174.39 26.8082C172.885 26.8082 171.589 26.4867 170.502 25.8438C169.421 25.1941 168.586 24.2827 167.996 23.1094C167.413 21.9295 167.121 20.5473 167.121 18.9631C167.121 17.3987 167.413 16.0199 167.996 14.8267C168.586 13.6335 169.408 12.7022 170.462 12.0327C171.523 11.3632 172.762 11.0284 174.181 11.0284C175.042 11.0284 175.878 11.1709 176.686 11.456C177.495 11.741 178.221 12.1884 178.864 12.7983C179.507 13.4081 180.014 14.2003 180.385 15.1747C180.757 16.1425 180.942 17.3191 180.942 18.7045V19.7585H168.801V17.5312H178.029C178.029 16.7491 177.87 16.0563 177.551 15.4531C177.233 14.8433 176.786 14.3627 176.209 14.0114C175.639 13.66 174.97 13.4844 174.201 13.4844C173.365 13.4844 172.636 13.6899 172.013 14.1009C171.397 14.5052 170.919 15.0355 170.581 15.6918C170.25 16.3414 170.084 17.0473 170.084 17.8097V19.5497C170.084 20.5705 170.263 21.4389 170.621 22.1548C170.986 22.8707 171.493 23.4176 172.142 23.7955C172.792 24.1667 173.551 24.3523 174.419 24.3523C174.983 24.3523 175.497 24.2727 175.961 24.1136C176.425 23.9479 176.826 23.7027 177.164 23.3778C177.502 23.053 177.76 22.652 177.939 22.1747L180.753 22.6818C180.528 23.5104 180.123 24.2363 179.54 24.8594C178.963 25.4759 178.238 25.9564 177.363 26.3011C176.494 26.6392 175.503 26.8082 174.39 26.8082Z" fill="#1A1A1A"></path></svg> 