<?xml version="1.0" encoding="UTF-8"?> <svg xmlns="http://www.w3.org/2000/svg" width="100" height="100" viewBox="0 0 100 100" fill="none"><path d="M52.1262 86C44.816 86 38.5279 84.4657 33.2621 81.3971C28.0272 78.2983 24.0005 74.0023 21.1817 68.5098C18.3939 63.0172 17 56.6958 17 49.5461C17 42.3044 18.4094 35.9526 21.2282 30.4906C24.0779 24.998 28.1202 20.7173 33.355 17.6488C38.5899 14.5496 44.816 13 52.0333 13C58.2594 13 63.711 14.12 68.3883 16.3601C73.0656 18.6001 76.7672 21.7453 79.493 25.7958C82.2189 29.8462 83.7212 34.6024 84 40.0644H65.3218C64.7952 36.5356 63.4013 33.6972 61.14 31.5493C58.9099 29.3706 55.9826 28.2813 52.3585 28.2813C49.292 28.2813 46.6125 29.1098 44.3204 30.7667C42.0592 32.3931 40.2936 34.7712 39.0236 37.9011C37.7536 41.031 37.1186 44.8206 37.1186 49.27C37.1186 53.7807 37.7381 57.6164 38.9771 60.7772C40.2471 63.9378 42.0282 66.3463 44.3204 68.0035C46.6125 69.6607 49.292 70.4885 52.3585 70.4885C54.6198 70.4885 56.6486 70.0286 58.4452 69.108C60.2727 68.1875 61.775 66.8526 62.9522 65.1034C64.1602 63.3241 64.95 61.1915 65.3218 58.7057H84C83.6902 64.1063 82.2034 68.8623 79.5395 72.9743C76.9066 77.0555 73.2669 80.2469 68.6206 82.548C63.9743 84.8498 58.4762 86 52.1262 86Z" fill="#0ABAB5"></path></svg> 