<?xml version="1.0" encoding="UTF-8"?> <svg xmlns="http://www.w3.org/2000/svg" width="181" height="32" viewBox="0 0 181 32" fill="none"><g clip-path="url(#clip0_703_1947)"><path d="M9.31407 25.3414C7.37568 25.3414 5.70835 24.9349 4.31206 24.1219C2.92398 23.3008 1.85624 22.1626 1.10882 20.7073C0.369606 19.2521 0 17.5772 0 15.6829C0 13.7642 0.373713 12.0813 1.12114 10.6341C1.87677 9.17887 2.94863 8.04471 4.3367 7.2317C5.72478 6.41057 7.37568 6 9.28943 6C10.9403 6 12.3859 6.29674 13.6261 6.89025C14.8664 7.48374 15.8479 8.31708 16.5707 9.39025C17.2934 10.4634 17.6918 11.7236 17.7657 13.1707H12.813C12.6734 12.2358 12.3038 11.4837 11.7042 10.9146C11.1128 10.3374 10.3366 10.0488 9.37567 10.0488C8.56254 10.0488 7.85206 10.2683 7.24428 10.7073C6.64469 11.1382 6.17653 11.7683 5.83977 12.5976C5.50302 13.4268 5.33464 14.4309 5.33464 15.6097C5.33464 16.8049 5.49891 17.8211 5.82745 18.6586C6.1642 19.496 6.63647 20.1341 7.24428 20.5732C7.85206 21.0123 8.56254 21.2316 9.37567 21.2316C9.97526 21.2316 10.5132 21.1098 10.9896 20.8659C11.4742 20.622 11.8725 20.2683 12.1847 19.8048C12.505 19.3334 12.7144 18.7684 12.813 18.1097H17.7657C17.6836 19.5407 17.2893 20.8007 16.583 21.8902C15.8848 22.9715 14.9197 23.8171 13.6877 24.4268C12.4557 25.0367 10.9978 25.3414 9.31407 25.3414Z" fill="#0ABAB5"></path><path d="M18.5239 24.9756V6.24388H23.6122V9.51218H23.8094C24.1543 8.34958 24.7333 7.47153 25.5464 6.87802C26.3595 6.2764 27.2958 5.97559 28.3554 5.97559C28.6183 5.97559 28.9016 5.99185 29.2056 6.02437C29.5095 6.05689 29.7764 6.1016 30.0063 6.15851V10.7683C29.7599 10.6951 29.4191 10.6301 28.9837 10.5731C28.5484 10.5162 28.1502 10.4878 27.7887 10.4878C27.0167 10.4878 26.3267 10.6545 25.719 10.9878C25.1193 11.313 24.6429 11.7683 24.2897 12.3536C23.9448 12.939 23.7722 13.6138 23.7722 14.378V24.9756H18.5239Z" fill="#0ABAB5"></path><path d="M33.9341 32C33.2688 32 32.6445 31.9472 32.0614 31.8415C31.4865 31.7438 31.0101 31.6178 30.6324 31.4634L31.8151 27.5853C32.4311 27.7723 32.9855 27.874 33.4783 27.8902C33.9793 27.9064 34.4105 27.7927 34.7719 27.5488C35.1416 27.3049 35.4413 26.8902 35.6713 26.3049L35.9793 25.5122L29.1909 6.2439H34.7104L38.6281 20H38.8252L42.78 6.2439H48.3364L40.9812 27C40.6281 28.0082 40.1477 28.8861 39.5398 29.6342C38.9402 30.3903 38.1805 30.9715 37.2605 31.378C36.3407 31.7927 35.2318 32 33.9341 32Z" fill="#0ABAB5"></path><path d="M48.4202 32V6.24391H53.5947V9.39025H53.8288C54.0587 8.88618 54.3913 8.37399 54.8266 7.85366C55.2702 7.32521 55.8451 6.88618 56.5515 6.53658C57.2661 6.17887 58.1531 6 59.2126 6C60.5926 6 61.8656 6.35773 63.0318 7.07317C64.1981 7.78048 65.1305 8.8496 65.8286 10.2805C66.5267 11.7033 66.8758 13.4878 66.8758 15.6341C66.8758 17.7236 66.535 19.4878 65.8532 20.9269C65.1796 22.3578 64.2598 23.4432 63.0935 24.1829C61.9353 24.9146 60.6378 25.2806 59.2003 25.2806C58.1818 25.2806 57.3152 25.1139 56.6008 24.7805C55.8944 24.4471 55.3154 24.0285 54.8636 23.5245C54.4119 23.0123 54.067 22.496 53.8288 21.9756H53.6686V32H48.4202ZM53.5578 15.6097C53.5578 16.7236 53.7138 17.6951 54.0259 18.5244C54.338 19.3537 54.7897 20 55.3811 20.4634C55.9725 20.9187 56.691 21.1464 57.5371 21.1464C58.3913 21.1464 59.114 20.9146 59.7054 20.4512C60.2968 19.9797 60.7445 19.3293 61.0483 18.5C61.3604 17.6626 61.5165 16.6992 61.5165 15.6097C61.5165 14.5284 61.3646 13.5772 61.0607 12.7561C60.7567 11.935 60.3091 11.2927 59.7178 10.8293C59.1264 10.3659 58.3995 10.1341 57.5371 10.1341C56.683 10.1341 55.9601 10.3577 55.3687 10.8049C54.7855 11.252 54.338 11.8862 54.0259 12.7073C53.7138 13.5284 53.5578 14.4959 53.5578 15.6097Z" fill="#0ABAB5"></path><path d="M77.8384 6.24391V10.1463H66.4421V6.24391H77.8384ZM69.0294 1.7561H74.2778V19.2195C74.2778 19.6992 74.3517 20.0731 74.4995 20.3414C74.6473 20.6017 74.8527 20.7846 75.1155 20.8902C75.3865 20.9959 75.6986 21.0487 76.0518 21.0487C76.2983 21.0487 76.5448 21.0285 76.791 20.9877C77.0375 20.939 77.2264 20.9025 77.3579 20.8781L78.1833 24.7438C77.9204 24.8251 77.5509 24.9187 77.0744 25.0244C76.598 25.1382 76.019 25.2073 75.3372 25.2316C74.0725 25.2806 72.9636 25.1139 72.0109 24.7317C71.0664 24.3496 70.3311 23.7561 69.8056 22.9513C69.2798 22.1464 69.0212 21.1301 69.0294 19.9025V1.7561Z" fill="#0ABAB5"></path><path d="M87.0021 25.3414C85.0884 25.3414 83.4333 24.939 82.0371 24.1341C80.6489 23.3211 79.5771 22.1911 78.8214 20.7438C78.0659 19.2886 77.688 17.6016 77.688 15.6829C77.688 13.748 78.0659 12.0569 78.8214 10.6097C79.5771 9.15447 80.6489 8.02439 82.0371 7.21952C83.4333 6.40651 85.0884 6 87.0021 6C88.9158 6 90.5668 6.40651 91.9547 7.21952C93.3512 8.02439 94.427 9.15447 95.1827 10.6097C95.9384 12.0569 96.3162 13.748 96.3162 15.6829C96.3162 17.6016 95.9384 19.2886 95.1827 20.7438C94.427 22.1911 93.3512 23.3211 91.9547 24.1341C90.5668 24.939 88.9158 25.3414 87.0021 25.3414ZM87.0267 21.317C87.8973 21.317 88.6243 21.0731 89.2075 20.5853C89.7906 20.0895 90.2301 19.4147 90.5257 18.561C90.8295 17.7073 90.9815 16.7358 90.9815 15.6463C90.9815 14.5569 90.8295 13.5854 90.5257 12.7317C90.2301 11.878 89.7906 11.2033 89.2075 10.7073C88.6243 10.2114 87.8973 9.96342 87.0267 9.96342C86.1479 9.96342 85.4087 10.2114 84.8091 10.7073C84.2177 11.2033 83.7702 11.878 83.4661 12.7317C83.1705 13.5854 83.0227 14.5569 83.0227 15.6463C83.0227 16.7358 83.1705 17.7073 83.4661 18.561C83.7702 19.4147 84.2177 20.0895 84.8091 20.5853C85.4087 21.0731 86.1479 21.317 87.0267 21.317Z" fill="#0ABAB5"></path><path d="M97.2253 24.9756V0H102.474V9.39025H102.634C102.864 8.88618 103.197 8.37399 103.632 7.85366C104.075 7.32521 104.65 6.88618 105.357 6.53658C106.071 6.17887 106.958 6 108.018 6C109.398 6 110.671 6.35773 111.837 7.07317C113.003 7.78048 113.936 8.8496 114.634 10.2805C115.332 11.7033 115.681 13.4878 115.681 15.6341C115.681 17.7236 115.34 19.4878 114.659 20.9269C113.985 22.3578 113.065 23.4432 111.899 24.1829C110.741 24.9146 109.443 25.2806 108.006 25.2806C106.987 25.2806 106.121 25.1139 105.406 24.7805C104.7 24.4471 104.121 24.0285 103.669 23.5245C103.217 23.0123 102.872 22.496 102.634 21.9756H102.4V24.9756H97.2253ZM102.363 15.6097C102.363 16.7236 102.519 17.6951 102.831 18.5244C103.143 19.3537 103.595 20 104.186 20.4634C104.778 20.9187 105.496 21.1464 106.342 21.1464C107.196 21.1464 107.919 20.9146 108.511 20.4512C109.102 19.9797 109.55 19.3293 109.854 18.5C110.166 17.6626 110.322 16.6992 110.322 15.6097C110.322 14.5284 110.17 13.5772 109.866 12.7561C109.562 11.935 109.114 11.2927 108.523 10.8293C107.932 10.3659 107.205 10.1341 106.342 10.1341C105.488 10.1341 104.765 10.3577 104.174 10.8049C103.591 11.252 103.143 11.8862 102.831 12.7073C102.519 13.5284 102.363 14.4959 102.363 15.6097Z" fill="#0ABAB5"></path><path d="M121.977 25.3293C120.77 25.3293 119.694 25.1219 118.749 24.7073C117.805 24.2845 117.057 23.6625 116.507 22.8415C115.965 22.0123 115.694 20.9797 115.694 19.7438C115.694 18.7033 115.887 17.8293 116.273 17.122C116.659 16.4146 117.185 15.8455 117.85 15.4146C118.515 14.9837 119.271 14.6585 120.117 14.439C120.971 14.2195 121.866 14.065 122.803 13.9756C123.903 13.8618 124.79 13.7561 125.464 13.6585C126.137 13.5528 126.626 13.3984 126.93 13.1951C127.234 12.9919 127.386 12.6911 127.386 12.2927V12.2195C127.386 11.4472 127.139 10.8496 126.647 10.4268C126.162 10.0041 125.472 9.79269 124.577 9.79269C123.632 9.79269 122.881 10 122.322 10.4146C121.764 10.8211 121.394 11.3333 121.213 11.9512L116.359 11.561C116.606 10.4228 117.09 9.43903 117.813 8.60975C118.536 7.77235 119.468 7.13008 120.61 6.68292C121.76 6.22765 123.09 6 124.601 6C125.653 6 126.659 6.12195 127.62 6.36586C128.589 6.60975 129.447 6.98781 130.195 7.5C130.95 8.01219 131.546 8.67073 131.981 9.47561C132.417 10.2724 132.634 11.2276 132.634 12.3415V24.9756H127.657V22.378H127.509C127.205 22.9633 126.799 23.4796 126.289 23.9269C125.78 24.3658 125.168 24.7114 124.454 24.9633C123.739 25.2073 122.914 25.3293 121.977 25.3293ZM123.48 21.7438C124.252 21.7438 124.934 21.5935 125.525 21.2927C126.117 20.9838 126.581 20.5691 126.918 20.0487C127.254 19.5284 127.423 18.939 127.423 18.2805V16.2927C127.259 16.3984 127.033 16.4959 126.745 16.5854C126.466 16.6667 126.15 16.7439 125.796 16.8171C125.443 16.8821 125.09 16.9431 124.737 17C124.384 17.0488 124.064 17.0935 123.776 17.1341C123.16 17.2236 122.622 17.3659 122.162 17.561C121.702 17.7561 121.345 18.0203 121.09 18.3537C120.836 18.6789 120.708 19.0854 120.708 19.5732C120.708 20.2806 120.967 20.8212 121.484 21.1952C122.01 21.5609 122.675 21.7438 123.48 21.7438Z" fill="#0ABAB5"></path><path d="M139.352 14.1463V24.9756H134.104V6.24391H139.106V9.54878H139.328C139.747 8.45935 140.449 7.59756 141.434 6.9634C142.42 6.32113 143.615 6 145.02 6C146.334 6 147.48 6.28456 148.457 6.85366C149.434 7.42277 150.194 8.23578 150.736 9.29269C151.278 10.3415 151.549 11.5935 151.549 13.0488V24.9756H146.301V13.9756C146.309 12.8293 146.013 11.935 145.414 11.2927C144.814 10.6423 143.989 10.3171 142.938 10.3171C142.231 10.3171 141.607 10.4675 141.065 10.7683C140.531 11.0691 140.112 11.5081 139.808 12.0854C139.512 12.6545 139.361 13.3415 139.352 14.1463Z" fill="#0ABAB5"></path><path d="M157.84 19.5853L157.852 13.3537H158.616L164.677 6.24391H170.702L162.558 15.6585H161.314L157.84 19.5853ZM153.084 24.9756V0H158.332V24.9756H153.084ZM164.911 24.9756L159.343 16.8171L162.841 13.1463L171.059 24.9756H164.911Z" fill="#0ABAB5"></path><path d="M175.923 16.0377H175.136C174.572 16.0377 174.028 16.2456 173.61 16.6212C173.134 17.0488 172.862 17.6562 172.862 18.2934V18.823C172.862 19.1646 172.93 19.5028 173.063 19.8181L173.213 20.1761C173.413 20.6516 173.813 21.0159 174.308 21.1722C174.746 21.3106 175.222 21.274 175.634 21.0695L175.675 21.049C175.84 20.9674 175.992 20.862 176.125 20.7367L177.122 19.8029M177.122 19.8029V16.0377M177.122 19.8029V20.1216C177.122 20.6064 177.422 21.0416 177.877 21.2174C178.161 21.327 178.477 21.324 178.759 21.2088L178.842 21.1748C179.228 21.017 179.524 20.6976 179.649 20.3024L179.968 19.2998C180.153 18.7195 180.188 18.1028 180.071 17.5056L180.004 17.1599C179.859 16.4234 179.532 15.7343 179.051 15.155C178.324 14.2786 177.29 13.7065 176.157 13.5531L175.821 13.5077C175.272 13.4333 174.706 13.4486 174.161 13.55C173.317 13.7071 172.514 14.0758 171.852 14.6175C171.037 15.2835 170.451 16.1846 170.176 17.1956L170.129 17.3676C169.999 17.8441 169.934 18.3354 169.934 18.8289V19.7579C169.934 20.8062 170.331 21.8159 171.048 22.5865C171.368 22.9301 171.743 23.2181 172.159 23.4382L172.337 23.5324C173.119 23.9461 173.991 24.1625 174.877 24.1625H175.168C175.67 24.1625 176.17 24.1054 176.659 23.9921L177.92 23.7002" stroke="#0ABAB5" stroke-width="1.5"></path></g><defs><clipPath id="clip0_703_1947"><rect width="181" height="32" fill="white"></rect></clipPath></defs></svg> 